<svg width="364" height="401" viewBox="0 0 364 401" fill="none" xmlns="http://www.w3.org/2000/svg">
<path d="M176 48L176 3C176 1.34315 177.343 5.87107e-08 179 1.31134e-07C180.657 2.03557e-07 182 1.34315 182 3L182 48C182 49.6569 180.657 51 179 51C177.343 51 176 49.6569 176 48Z" fill="black"/>
<path d="M5 306H359C361.761 306 364 308.239 364 311C364 313.761 361.761 316 359 316H5C2.23858 316 0 313.761 0 311C0 308.239 2.23858 306 5 306Z" fill="black"/>
<path d="M53.707 350H309.707C311.916 350 313.707 352.239 313.707 355C313.707 357.761 311.916 360 309.707 360H53.707C51.4979 360 49.707 357.761 49.707 355C49.707 352.239 51.4979 350 53.707 350Z" fill="black"/>
<path d="M113.707 391H249.707C251.916 391 253.707 393.239 253.707 396C253.707 398.761 251.916 401 249.707 401H113.707C111.498 401 109.707 398.761 109.707 396C109.707 393.239 111.498 391 113.707 391Z" fill="black"/>
<path d="M296.525 111.388L319.55 98.388C320.993 97.5734 322.822 98.0827 323.637 99.5255C324.452 100.968 323.942 102.798 322.5 103.613L299.475 116.613C298.032 117.427 296.202 116.918 295.387 115.475C294.573 114.032 295.082 112.202 296.525 111.388Z" fill="black"/>
<path d="M62.3887 113.531L40.3884 99.5305C38.9906 98.641 38.5785 96.7868 39.468 95.3889C40.3576 93.9911 42.2118 93.5791 43.6097 94.4686L65.6099 108.469C67.0075 109.358 67.4198 111.213 66.5303 112.61C65.6408 114.008 63.7865 114.42 62.3887 113.531Z" fill="black"/>
<path d="M111.395 64.4887L91.3947 29.4885C90.5726 28.05 91.0724 26.2174 92.511 25.3954C93.9495 24.5733 95.7821 25.0731 96.6041 26.5117L116.604 61.5119C117.426 62.9504 116.926 64.783 115.488 65.605C114.049 66.427 112.217 65.9271 111.395 64.4887Z" fill="black"/>
<path d="M245.526 63.3035L269.526 28.3033C270.463 26.9368 272.33 26.5887 273.697 27.5257C275.063 28.4627 275.411 30.33 274.474 31.6965L250.474 66.6967C249.537 68.063 247.67 68.4112 246.304 67.4743C244.937 66.5373 244.589 64.67 245.526 63.3035Z" fill="black"/>
<path d="M261.857 106.846C261.805 106.787 261.752 106.729 261.698 106.673L258.337 103.216L258.171 103.052L254.634 99.7403C254.575 99.6853 254.515 99.6314 254.454 99.5793L250.739 96.423L250.557 96.2762L246.683 93.2853L246.494 93.1467L242.465 90.3278L242.266 90.1952L238.085 87.5567L237.883 87.4362L233.56 84.9822L233.347 84.8676L228.896 82.6152C228.827 82.5803 228.756 82.547 228.686 82.5152L224.112 80.4581L223.892 80.3654L219.201 78.5176L218.98 78.4357L214.188 76.8007C214.112 76.7747 214.035 76.75 213.957 76.7276L209.073 75.3156L208.845 75.2551L203.878 74.0636L203.645 74.0136L198.607 73.0497L198.369 73.0095L193.272 72.2811L193.04 72.2538L187.891 71.7546C187.809 71.7467 187.727 71.7403 187.645 71.7363L182.457 71.4833C182.379 71.4795 182.301 71.4773 182.224 71.477L177.01 71.459L176.766 71.4634L171.54 71.6937C171.462 71.6972 171.382 71.7026 171.304 71.7096L166.07 72.1819L165.836 72.2091L160.614 72.9221C160.534 72.9331 160.453 72.9457 160.374 72.9604L155.172 73.922L154.939 73.9711L149.772 75.1754L149.538 75.2354L144.414 76.6875L144.187 76.7576L139.123 78.4478L138.9 78.5278L133.901 80.4588L133.68 80.5506L128.764 82.7189C128.691 82.7511 128.619 82.7844 128.547 82.8199L123.722 85.2243L123.515 85.3337L118.792 87.9655L118.584 88.0885L113.982 90.9486L113.784 91.0779L109.307 94.1579L109.115 94.2973L104.774 97.5926C104.711 97.6405 104.649 97.69 104.589 97.7408L100.399 101.247C100.337 101.299 100.277 101.351 100.218 101.405L96.1923 105.116C96.1356 105.168 96.08 105.222 96.0259 105.277L92.1646 109.18C92.1088 109.236 92.055 109.295 92.002 109.353L88.3207 113.447C88.2677 113.506 88.216 113.567 88.1658 113.628L84.6764 117.906C84.6268 117.967 84.5788 118.029 84.5322 118.092L81.2438 122.537C81.1973 122.6 81.1522 122.664 81.1088 122.729L78.0258 127.34C77.9826 127.405 77.9409 127.47 77.9009 127.536L75.0336 132.299C74.9927 132.367 74.9536 132.436 74.9161 132.505L72.2741 137.415C72.237 137.484 72.2019 137.555 72.1682 137.625L69.7591 142.667C69.7254 142.737 69.6935 142.808 69.6633 142.88L67.491 148.05C67.4607 148.122 67.4326 148.196 67.4059 148.269L65.482 153.546C65.4556 153.619 65.4303 153.692 65.4074 153.765L63.7332 159.144C63.7098 159.219 63.688 159.295 63.6683 159.371L62.2523 164.843C62.2327 164.918 62.2143 164.995 62.1984 165.071L61.0467 170.615C61.0309 170.691 61.0168 170.767 61.0047 170.844L60.1159 176.459C60.1037 176.536 60.0932 176.614 60.0847 176.691L59.4686 182.355C59.4603 182.431 59.4542 182.508 59.4495 182.585L59.1024 188.293C59.0976 188.373 59.0951 188.453 59.0943 188.533L59.0316 194.269C59.0307 194.345 59.0315 194.421 59.0343 194.497L59.2432 200.248C59.2461 200.325 59.2508 200.403 59.2574 200.48L59.7468 206.234C59.7534 206.312 59.7623 206.39 59.7727 206.467L60.5455 212.215C60.5557 212.291 60.568 212.366 60.5818 212.442L61.6302 218.16C61.6444 218.237 61.6603 218.314 61.6781 218.39L63.0104 224.074C63.0282 224.15 63.0477 224.226 63.0692 224.301L64.68 229.932C64.7013 230.006 64.7241 230.08 64.749 230.154L66.6365 235.722C66.6617 235.797 66.6887 235.87 66.7174 235.943L68.8813 241.437C68.9098 241.509 68.9393 241.581 68.9712 241.652L71.4053 247.055C71.4372 247.126 71.4702 247.196 71.5054 247.265L74.2057 252.568C74.2409 252.637 74.2783 252.706 74.3167 252.773L77.2788 257.963C77.3177 258.031 77.3578 258.098 77.3999 258.164L80.6199 263.223C80.6623 263.29 80.7068 263.356 80.7525 263.421L84.2303 268.341C85.8106 270.577 88.9472 271.131 91.2363 269.579C93.5254 268.026 94.0999 264.956 92.5197 262.72L89.1032 257.883L86.0229 253.045L83.1745 248.053L80.5717 242.942L78.2415 237.767L76.1618 232.488L74.3534 227.151L72.8028 221.73L71.5242 216.275L70.5163 210.777L69.7766 205.277L69.3078 199.754L69.1059 194.245L69.166 188.742L69.4993 183.252L70.0904 177.822L70.9426 172.438L72.0457 167.126L73.4039 161.879L75.013 156.715L76.8474 151.681L78.9323 146.717L81.2481 141.87L83.7728 137.18L86.5115 132.631L89.468 128.211L92.6305 123.935L95.9576 119.858L99.4717 115.948L103.165 112.213L107.045 108.637L111.044 105.293L115.189 102.146L119.467 99.203L123.862 96.4713L128.377 93.9549L133.001 91.6515L137.68 89.5873L142.466 87.7386L147.3 86.1243L152.208 84.7337L157.126 83.5878L162.106 82.6674L167.074 81.9886L172.085 81.5348L177.055 81.316L182.035 81.3332L187.002 81.5755L191.896 82.05L196.764 82.745L201.585 83.6678L206.298 84.7986L210.954 86.1446L215.519 87.7021L219.984 89.4609L224.349 91.4237L228.59 93.5685L232.709 95.9065L236.686 98.4156L240.535 101.109L244.222 103.956L247.752 106.955L251.11 110.101L254.318 113.402L257.32 116.799L260.174 120.358L262.82 124.004L265.275 127.755L267.546 131.607L269.612 135.541L271.478 139.545L273.148 143.641L274.599 147.757L275.851 151.939L276.891 156.16L277.717 160.358L278.339 164.6L278.755 168.88L278.959 173.116L278.958 177.37L278.752 181.559L278.343 185.764L277.736 189.892L276.933 193.966L275.937 197.988L274.75 201.953L273.383 205.816L271.827 209.623L270.108 213.309L268.218 216.912L266.158 220.409L263.96 223.766L261.592 227.026L259.087 230.146L256.443 233.14L253.68 235.984L250.789 238.689L247.792 241.239L244.68 243.644L241.484 245.88L238.193 247.954L234.807 249.878L231.373 251.619L227.872 253.192L224.302 254.597L220.685 255.828L217.057 256.879L213.374 257.764L209.691 258.462L206.008 258.988L202.283 259.343L198.595 259.524L194.914 259.528L191.266 259.367L187.624 259.032L184.049 258.535L180.518 257.876L177.031 257.054L173.617 256.076L170.249 254.939L167.005 253.67L163.801 252.244L160.709 250.687L157.709 248.993L154.808 247.17L152.015 245.22L149.342 243.163L146.789 240.997L144.346 238.716L142.048 236.354L139.876 233.894L137.826 231.332L135.928 228.715L134.167 226.025L132.551 223.274L131.073 220.451L129.759 217.616L128.572 214.683L127.548 211.767L126.672 208.81L125.943 205.801L125.366 202.814L124.94 199.832L124.662 196.837L124.534 193.847L124.549 190.879L124.709 187.922L125.008 185.003L125.449 182.127L126.026 179.295L126.739 176.51L127.579 173.776L128.542 171.114L129.638 168.492L130.848 165.949L132.166 163.5L133.596 161.121L135.141 158.815L136.764 156.622L138.506 154.5L140.321 152.489L142.217 150.584L144.201 148.772L146.228 147.091L148.359 145.492L150.521 144.024L152.751 142.658L155.029 141.409L157.341 140.279L159.687 139.27L162.066 138.375L164.474 137.601L166.887 136.946L169.307 136.413L171.731 135.996L174.161 135.695L176.574 135.512L179.007 135.442L181.383 135.489L183.756 135.645L186.077 135.909L188.391 136.285L190.657 136.763L192.862 137.34L195.013 138.017L197.124 138.788L199.18 139.656L201.16 140.602L203.093 141.645L204.94 142.76L206.713 143.951L208.426 145.222L210.035 146.545L211.568 147.934L213.017 149.38L214.395 150.901L215.667 152.443L216.855 154.044L217.954 155.687L218.962 157.361L219.86 159.041L220.675 160.764L221.397 162.511L222.027 164.275L222.561 166.042L222.998 167.814L223.345 169.589L223.596 171.341L223.76 173.112L223.834 174.855L223.82 176.57L223.722 178.285L223.541 179.967L223.275 181.628L222.934 183.229L222.514 184.815L222.023 186.359L221.456 187.861L220.822 189.317L220.135 190.712L219.384 192.053L218.571 193.346L217.702 194.593L216.786 195.776L215.815 196.903L214.813 197.96L213.772 198.952L212.693 199.88L211.583 200.745L210.444 201.544L209.302 202.263L208.108 202.933L206.913 203.53L205.716 204.055L204.494 204.517L203.286 204.908L202.064 205.239L200.854 205.506L199.663 205.701L198.46 205.838L197.274 205.916L196.123 205.935L194.963 205.891L193.847 205.795L192.741 205.645L191.674 205.444L190.633 205.191L189.649 204.898L188.675 204.555L187.748 204.172L186.85 203.746L185.998 203.288L185.196 202.8L184.433 202.281L183.714 201.734L183.044 201.162L182.397 200.55L181.82 199.946L181.293 199.325L180.803 198.68L180.357 198.026L179.966 197.375L179.617 196.717L179.314 196.054L179.052 195.389L178.834 194.725L178.663 194.093L178.534 193.462L178.443 192.829L178.39 192.229L178.371 191.628L178.387 191.07L178.438 190.526L178.518 189.991L178.625 189.482L178.759 188.997L178.908 188.562L179.086 188.13L179.276 187.738L179.485 187.37L179.702 187.038L179.934 186.731L180.177 186.445L180.409 186.207L180.653 185.987L180.911 185.782L181.128 185.633L181.351 185.502L181.601 185.376L181.796 185.294L182.005 185.225L182.203 185.173L182.345 185.147L182.543 185.125L182.669 185.12L182.746 185.123L182.858 185.137L182.938 185.153L183.015 185.175L183.27 185.27C185.867 186.237 188.78 184.959 189.775 182.414C190.77 179.87 189.472 177.024 186.875 176.057L186.434 175.893L186.248 175.828C186.187 175.808 186.124 175.788 186.062 175.77L185.602 175.638C185.469 175.6 185.334 175.567 185.198 175.54L184.716 175.443L184.332 175.38L183.835 175.319L183.633 175.298C183.566 175.293 183.499 175.289 183.431 175.286L182.921 175.263L182.697 175.258C182.623 175.258 182.548 175.26 182.474 175.263L181.949 175.285L181.608 175.312L181.074 175.37L180.718 175.423L180.178 175.52C180.042 175.545 179.907 175.575 179.773 175.611L179.231 175.755L178.936 175.843L178.39 176.024C178.263 176.066 178.138 176.114 178.014 176.166L177.475 176.393C177.369 176.438 177.263 176.486 177.16 176.538L176.623 176.809L176.342 176.961L175.81 177.273L175.498 177.471L174.981 177.827L174.697 178.038L174.195 178.438C174.116 178.501 174.038 178.567 173.963 178.634L173.477 179.072C173.397 179.143 173.319 179.218 173.244 179.295L172.776 179.775C172.696 179.856 172.62 179.941 172.546 180.027L172.102 180.549C172.037 180.625 171.974 180.705 171.913 180.785L171.494 181.343C171.43 181.428 171.37 181.514 171.312 181.603L170.92 182.201C170.863 182.288 170.809 182.377 170.758 182.468L170.398 183.101C170.347 183.191 170.299 183.282 170.254 183.374L169.928 184.042C169.884 184.134 169.841 184.228 169.802 184.322L169.511 185.031C169.473 185.123 169.438 185.216 169.406 185.31L169.157 186.04C169.125 186.131 169.097 186.224 169.071 186.317L168.859 187.083C168.833 187.178 168.81 187.275 168.789 187.371L168.623 188.157C168.603 188.252 168.586 188.348 168.571 188.444L168.45 189.262C168.436 189.352 168.425 189.443 168.417 189.534L168.34 190.371C168.331 190.471 168.324 190.571 168.321 190.671L168.297 191.527C168.294 191.624 168.294 191.722 168.297 191.819L168.325 192.689C168.328 192.781 168.333 192.873 168.341 192.964L168.42 193.855C168.428 193.946 168.439 194.038 168.452 194.128L168.583 195.026C168.596 195.114 168.612 195.202 168.63 195.289L168.814 196.195C168.834 196.296 168.858 196.395 168.885 196.494L169.132 197.405C169.154 197.488 169.179 197.57 169.206 197.652L169.506 198.564C169.535 198.652 169.566 198.738 169.599 198.824L169.959 199.738C169.992 199.82 170.027 199.903 170.064 199.984L170.478 200.888C170.515 200.969 170.555 201.05 170.597 201.13L171.071 202.03C171.114 202.111 171.159 202.191 171.206 202.269L171.741 203.159C171.789 203.239 171.839 203.317 171.892 203.394L172.485 204.264C172.533 204.333 172.582 204.401 172.633 204.468L173.281 205.321C173.334 205.391 173.389 205.46 173.446 205.527L174.152 206.36C174.215 206.434 174.281 206.507 174.349 206.578L175.118 207.383C175.175 207.442 175.233 207.501 175.293 207.557L176.115 208.336C176.178 208.396 176.244 208.455 176.311 208.512L177.183 209.256C177.25 209.314 177.32 209.37 177.391 209.424L178.323 210.135C178.395 210.19 178.468 210.243 178.542 210.294L179.525 210.963C179.598 211.012 179.672 211.059 179.747 211.105L180.781 211.733C180.855 211.778 180.93 211.822 181.007 211.863L182.089 212.446C182.166 212.487 182.243 212.526 182.321 212.563L183.448 213.098C183.524 213.134 183.602 213.168 183.68 213.2L184.853 213.686C184.937 213.721 185.023 213.754 185.11 213.785L186.326 214.213C186.404 214.24 186.483 214.266 186.563 214.29L187.812 214.662C187.898 214.688 187.985 214.712 188.073 214.733L189.362 215.044C189.446 215.064 189.53 215.082 189.615 215.098L190.938 215.348C191.024 215.364 191.111 215.377 191.197 215.389L192.551 215.574C192.635 215.585 192.719 215.595 192.803 215.602L194.182 215.721C194.264 215.728 194.347 215.733 194.429 215.736L195.833 215.79C195.925 215.793 196.017 215.794 196.109 215.792L197.53 215.77C197.615 215.769 197.701 215.765 197.786 215.759L199.226 215.665C199.307 215.659 199.389 215.652 199.469 215.643L200.919 215.479C201.005 215.469 201.09 215.457 201.176 215.443L202.635 215.203C202.724 215.188 202.812 215.171 202.9 215.152L204.361 214.831C204.443 214.814 204.524 214.793 204.604 214.772L206.069 214.374C206.148 214.353 206.226 214.329 206.304 214.304L207.762 213.833C207.843 213.807 207.922 213.779 208.001 213.749L209.451 213.199C209.532 213.169 209.613 213.136 209.692 213.101L211.13 212.472C211.21 212.437 211.288 212.4 211.365 212.361L212.783 211.652C212.855 211.616 212.926 211.579 212.995 211.54L214.394 210.755C214.469 210.713 214.544 210.669 214.617 210.623L215.988 209.759C216.059 209.714 216.129 209.668 216.198 209.619L217.542 208.676C217.612 208.627 217.681 208.576 217.748 208.524L219.053 207.506C219.115 207.458 219.176 207.407 219.236 207.356L220.507 206.264L220.698 206.09L221.922 204.925L222.099 204.746L223.277 203.505C223.332 203.448 223.384 203.389 223.436 203.329L224.562 202.023L224.726 201.822L225.792 200.446L225.937 200.248L226.943 198.809L227.075 198.61L228.021 197.106L228.149 196.89L229.026 195.324C229.068 195.25 229.107 195.174 229.145 195.098L229.944 193.476L230.043 193.264L230.772 191.587L230.862 191.365L231.514 189.639L231.599 189.396L232.163 187.622L232.231 187.39L232.711 185.573L232.766 185.346L233.162 183.489L233.209 183.242L233.511 181.349L233.543 181.106L233.751 179.184L233.771 178.945L233.884 176.993L233.891 176.756L233.908 174.788L233.904 174.539L233.818 172.552L233.803 172.317L233.618 170.315L233.589 170.073L233.301 168.066L233.261 167.827L232.869 165.819C232.854 165.742 232.837 165.664 232.818 165.587L232.322 163.58L232.256 163.342L231.653 161.344L231.578 161.116L230.87 159.131L230.783 158.907L229.97 156.94L229.872 156.72L228.955 154.782L228.848 154.568L227.824 152.654L227.702 152.437L226.571 150.56L226.446 150.364L225.218 148.528C225.174 148.462 225.128 148.397 225.08 148.333L223.751 146.541L223.595 146.341L222.162 144.605L222.012 144.431L220.483 142.744L220.314 142.566L218.691 140.945L218.515 140.778L216.8 139.224C216.741 139.17 216.68 139.117 216.618 139.067L214.81 137.581L214.614 137.429L212.718 136.022L212.524 135.885L210.545 134.556C210.479 134.512 210.411 134.469 210.343 134.428L208.287 133.185L208.072 133.062L205.939 131.912C205.866 131.873 205.793 131.836 205.718 131.8L203.509 130.745L203.296 130.649L201.025 129.69C200.948 129.657 200.87 129.627 200.791 129.598L198.455 128.744C198.382 128.717 198.309 128.692 198.235 128.669L195.839 127.915C195.759 127.89 195.676 127.866 195.594 127.845L193.147 127.206L192.91 127.149L190.413 126.623L190.179 126.579L187.641 126.167C187.56 126.154 187.478 126.143 187.396 126.133L184.815 125.84L184.574 125.818L181.97 125.647L181.732 125.636L179.098 125.584C179.015 125.583 178.931 125.583 178.848 125.586L176.197 125.662L175.956 125.675L173.295 125.876L173.053 125.9L170.382 126.231C170.301 126.241 170.22 126.252 170.139 126.266L167.468 126.725L167.233 126.771L164.572 127.358L164.332 127.417L161.68 128.137L161.454 128.204L158.819 129.052L158.583 129.133L155.981 130.113L155.762 130.201L153.191 131.307L152.966 131.41L150.434 132.648L150.222 132.758L147.738 134.12L147.528 134.242L145.096 135.732L144.896 135.86L142.521 137.472L142.326 137.612L140.02 139.344C139.955 139.392 139.89 139.443 139.828 139.495L137.595 141.346C137.533 141.397 137.473 141.451 137.414 141.505L135.261 143.471C135.203 143.524 135.146 143.579 135.091 143.635L133.018 145.716C132.961 145.774 132.905 145.833 132.851 145.894L130.876 148.082C130.824 148.139 130.774 148.198 130.725 148.258L128.841 150.552C128.789 150.616 128.737 150.683 128.688 150.749L126.916 153.145C126.87 153.207 126.825 153.271 126.782 153.335L125.112 155.826C125.068 155.892 125.026 155.96 124.985 156.028L123.43 158.613C123.39 158.68 123.351 158.748 123.314 158.816L121.878 161.485C121.839 161.556 121.802 161.629 121.767 161.702L120.459 164.453C120.426 164.523 120.393 164.595 120.363 164.666L119.18 167.495C119.149 167.569 119.12 167.643 119.093 167.718L118.044 170.617C118.017 170.692 117.991 170.768 117.968 170.844L117.059 173.803C117.037 173.877 117.015 173.95 116.996 174.024L116.223 177.042C116.203 177.121 116.185 177.201 116.169 177.28L115.545 180.351C115.529 180.428 115.515 180.505 115.503 180.582L115.027 183.697C115.014 183.776 115.004 183.856 114.996 183.935L114.673 187.087C114.665 187.165 114.659 187.243 114.655 187.32L114.483 190.5C114.479 190.578 114.476 190.657 114.476 190.735L114.46 193.942C114.459 194.02 114.461 194.098 114.464 194.175L114.603 197.395C114.607 197.474 114.611 197.552 114.618 197.631L114.917 200.862C114.924 200.941 114.935 201.021 114.946 201.1L115.408 204.332C115.419 204.41 115.432 204.488 115.447 204.565L116.07 207.789C116.084 207.864 116.101 207.938 116.119 208.012L116.897 211.222C116.916 211.3 116.937 211.378 116.96 211.455L117.904 214.643C117.927 214.72 117.951 214.796 117.977 214.872L119.085 218.027C119.11 218.099 119.137 218.17 119.166 218.241L120.431 221.364C120.461 221.438 120.492 221.511 120.525 221.583L121.95 224.655C121.983 224.726 122.017 224.797 122.054 224.867L123.635 227.888C123.672 227.958 123.711 228.027 123.751 228.095L125.489 231.055C125.53 231.124 125.572 231.192 125.615 231.258L127.508 234.148C127.551 234.214 127.595 234.278 127.641 234.342L129.682 237.156C129.728 237.219 129.775 237.28 129.823 237.341L132.01 240.075C132.06 240.138 132.112 240.199 132.165 240.259L134.496 242.898C134.548 242.958 134.603 243.017 134.658 243.074L137.13 245.614C137.186 245.671 137.242 245.726 137.3 245.78L139.908 248.215C139.966 248.269 140.024 248.322 140.084 248.373L142.822 250.696C142.883 250.748 142.946 250.798 143.009 250.847L145.877 253.053C145.938 253.1 146.001 253.145 146.064 253.189L149.044 255.269C149.11 255.315 149.177 255.359 149.245 255.402L152.344 257.35C152.411 257.392 152.479 257.433 152.547 257.472L155.756 259.284C155.825 259.323 155.897 259.361 155.968 259.397L159.278 261.065C159.351 261.101 159.424 261.136 159.498 261.169L162.904 262.684C162.975 262.716 163.046 262.746 163.118 262.775L166.61 264.14C166.685 264.17 166.761 264.197 166.837 264.223L170.413 265.43C170.488 265.455 170.565 265.48 170.641 265.502L174.292 266.546C174.368 266.568 174.446 266.588 174.523 266.606L178.239 267.484C178.317 267.502 178.397 267.519 178.476 267.534L182.246 268.238C182.324 268.252 182.401 268.264 182.479 268.275L186.306 268.809C186.385 268.82 186.465 268.829 186.545 268.836L190.41 269.191C190.49 269.198 190.57 269.204 190.651 269.207L194.545 269.379C194.623 269.383 194.701 269.384 194.778 269.384L198.7 269.381C198.782 269.381 198.866 269.379 198.948 269.374L202.882 269.181C202.96 269.177 203.039 269.172 203.117 269.164L207.057 268.79C207.137 268.782 207.217 268.773 207.296 268.762L211.238 268.199C211.316 268.188 211.395 268.175 211.472 268.16L215.396 267.415C215.477 267.399 215.558 267.382 215.638 267.363L219.542 266.425C219.619 266.406 219.696 266.386 219.771 266.364L223.645 265.241C223.721 265.22 223.796 265.196 223.87 265.17L227.703 263.867C227.779 263.841 227.855 263.813 227.93 263.784L231.715 262.293C231.79 262.263 231.864 262.233 231.937 262.2L235.663 260.527C235.736 260.494 235.809 260.459 235.881 260.422L239.538 258.567C239.609 258.531 239.68 258.494 239.749 258.454L243.326 256.422C243.393 256.384 243.46 256.344 243.525 256.302L247.023 254.099C247.092 254.055 247.159 254.011 247.226 253.964L250.623 251.587C250.689 251.541 250.754 251.494 250.817 251.445L254.114 248.897C254.176 248.849 254.238 248.799 254.298 248.747L257.481 246.038L257.656 245.882L260.717 243.018L260.888 242.851L263.822 239.831L263.983 239.657L266.78 236.49C266.831 236.431 266.881 236.372 266.93 236.312L269.582 233.009L269.728 232.818L272.23 229.373L272.365 229.176L274.702 225.606C274.745 225.541 274.785 225.475 274.824 225.408L276.999 221.717C277.04 221.648 277.079 221.578 277.116 221.508L279.116 217.699L279.219 217.492L281.043 213.579L281.138 213.362L282.776 209.354C282.805 209.282 282.832 209.21 282.858 209.137L284.309 205.038C284.336 204.963 284.36 204.886 284.383 204.809L285.633 200.632L285.695 200.407L286.748 196.153L286.799 195.927L287.65 191.613L287.69 191.381L288.332 187.012L288.361 186.777L288.79 182.363L288.807 182.132L289.026 177.687C289.03 177.608 289.031 177.529 289.031 177.451L289.031 172.981L289.026 172.748L288.81 168.269L288.794 168.035L288.358 163.549L288.33 163.316L287.674 158.836C287.663 158.758 287.649 158.681 287.634 158.604L286.756 154.141L286.707 153.917L285.613 149.479L285.549 149.247L284.232 144.852L284.16 144.633L282.628 140.283C282.602 140.209 282.574 140.136 282.544 140.063L280.793 135.769L280.698 135.553L278.732 131.331L278.629 131.123L276.454 126.982L276.338 126.774L273.95 122.723L273.829 122.528L271.241 118.574L271.107 118.38L268.318 114.534L268.173 114.346L265.187 110.621L265.034 110.441L261.857 106.846Z" fill="black"/>
</svg>
