<svg width="653" height="215" viewBox="0 0 653 215" fill="none" xmlns="http://www.w3.org/2000/svg">
<path d="M287.574 120.97C284.6 120.97 281.819 120.485 279.232 119.515C276.646 118.48 274.609 117.122 273.121 115.441C272.41 114.665 272.054 113.76 272.054 112.725C272.054 111.626 272.475 110.656 273.315 109.815C274.156 108.974 275.158 108.554 276.322 108.554C277.422 108.554 278.359 108.942 279.135 109.718C280.235 110.753 281.625 111.561 283.306 112.143C284.988 112.725 286.637 113.016 288.253 113.016C289.935 113.016 291.39 112.66 292.618 111.949C293.847 111.173 294.461 109.977 294.461 108.36C294.461 107.002 293.879 105.967 292.715 105.256C291.616 104.48 289.741 103.866 287.089 103.413C282.369 102.637 278.812 101.344 276.419 99.533C274.027 97.6577 272.83 95.0387 272.83 91.676C272.83 88.0547 274.221 85.177 277.001 83.043C279.782 80.8443 283.436 79.745 287.962 79.745C292.618 79.745 296.337 80.9413 299.117 83.334C300.217 84.2393 300.766 85.3063 300.766 86.535C300.766 87.5697 300.346 88.475 299.505 89.251C298.729 89.9623 297.792 90.318 296.692 90.318C295.852 90.318 295.076 90.0917 294.364 89.639C291.907 88.087 289.32 87.311 286.604 87.311C284.988 87.311 283.63 87.6343 282.53 88.281C281.431 88.9277 280.881 89.8977 280.881 91.191C280.881 92.549 281.722 93.616 283.403 94.392C285.149 95.168 287.671 95.8793 290.969 96.526C292.78 96.8493 294.558 97.4313 296.304 98.272C298.115 99.048 299.602 100.244 300.766 101.861C301.995 103.478 302.609 105.676 302.609 108.457C302.609 112.143 301.187 115.15 298.341 117.478C295.561 119.806 291.972 120.97 287.574 120.97ZM315.739 120.97C314.575 120.97 313.54 120.582 312.635 119.806C311.794 118.965 311.374 117.995 311.374 116.896V87.02C311.374 85.1447 311.956 83.625 313.12 82.461C314.284 81.297 315.803 80.715 317.679 80.715H327.476C331.356 80.715 334.557 81.8143 337.079 84.013C339.665 86.2117 340.959 89.1217 340.959 92.743C340.959 96.6877 339.698 99.8887 337.176 102.346C334.654 104.803 331.453 106.032 327.573 106.032H321.85C320.556 106.032 319.91 106.679 319.91 107.972L320.104 116.896C320.104 117.995 319.651 118.965 318.746 119.806C317.905 120.582 316.903 120.97 315.739 120.97ZM321.365 98.272H326.506C330.515 98.272 332.52 96.623 332.52 93.325C332.52 90.0917 330.644 88.475 326.894 88.475H321.365C320.395 88.475 319.91 88.96 319.91 89.93V96.817C319.91 97.787 320.395 98.272 321.365 98.272ZM354.539 120.97C353.31 120.97 352.275 120.582 351.435 119.806C350.594 119.03 350.174 118.06 350.174 116.896V84.401C350.174 83.1723 350.594 82.17 351.435 81.394C352.275 80.618 353.31 80.23 354.539 80.23C355.832 80.23 356.867 80.618 357.643 81.394C358.483 82.17 358.904 83.1723 358.904 84.401V116.896C358.904 118.125 358.483 119.127 357.643 119.903C356.867 120.614 355.832 120.97 354.539 120.97ZM374.368 120.97C373.204 120.97 372.202 120.582 371.361 119.806C370.521 118.965 370.1 117.995 370.1 116.896V87.02C370.1 85.1447 370.682 83.625 371.846 82.461C373.075 81.297 374.692 80.715 376.696 80.715H386.396C390.341 80.715 393.51 81.879 395.902 84.207C398.36 86.535 399.588 89.445 399.588 92.937C399.588 95.0063 399.039 96.9463 397.939 98.757C396.84 100.568 395.256 102.023 393.186 103.122C394.092 103.575 394.9 104.189 395.611 104.965C396.387 105.741 397.002 106.679 397.454 107.778L400.655 115.15C400.979 115.926 401.14 116.573 401.14 117.09C401.14 118.254 400.688 119.224 399.782 120C398.877 120.711 397.875 121.067 396.775 121.067C396.064 121.067 395.353 120.873 394.641 120.485C393.995 120.097 393.477 119.483 393.089 118.642L389.403 109.815C388.757 108.263 387.884 107.164 386.784 106.517C385.75 105.806 384.521 105.45 383.098 105.45H380.576C379.283 105.45 378.636 106.097 378.636 107.39V116.896C378.636 117.995 378.216 118.965 377.375 119.806C376.535 120.582 375.532 120.97 374.368 120.97ZM380.091 98.175H386.008C387.625 98.175 388.886 97.7223 389.791 96.817C390.761 95.9117 391.246 94.7477 391.246 93.325C391.246 91.8377 390.761 90.6737 389.791 89.833C388.886 88.9277 387.625 88.475 386.008 88.475H380.091C379.121 88.475 378.636 88.96 378.636 89.93V96.72C378.636 97.69 379.121 98.175 380.091 98.175ZM410.344 120.97C409.309 120.97 408.307 120.582 407.337 119.806C406.432 119.03 405.979 118.028 405.979 116.799C405.979 116.282 406.076 115.732 406.27 115.15L418.492 83.237C418.945 82.073 419.688 81.2 420.723 80.618C421.758 80.036 422.825 79.745 423.924 79.745C425.088 79.745 426.187 80.036 427.222 80.618C428.321 81.2 429.097 82.073 429.55 83.237L442.645 114.956C442.774 115.215 442.839 115.473 442.839 115.732C442.839 115.991 442.839 116.249 442.839 116.508C442.839 117.866 442.386 118.933 441.481 119.709C440.576 120.485 439.573 120.873 438.474 120.873C437.698 120.873 436.922 120.647 436.146 120.194C435.435 119.806 434.917 119.159 434.594 118.254L431.781 110.688C431.716 110.3 431.458 110.106 431.005 110.106H417.91C417.457 110.106 417.166 110.3 417.037 110.688L414.321 118.351C413.868 119.192 413.286 119.838 412.575 120.291C411.864 120.744 411.12 120.97 410.344 120.97ZM421.402 102.54H427.125C427.513 102.54 427.804 102.411 427.998 102.152C428.257 101.829 428.321 101.441 428.192 100.988L425.67 94.101C425.282 93.0663 424.797 92.549 424.215 92.549C423.633 92.549 423.148 93.0987 422.76 94.198L420.335 101.085C420.206 101.473 420.238 101.829 420.432 102.152C420.626 102.411 420.949 102.54 421.402 102.54ZM456.919 120C455.044 120 453.524 119.418 452.36 118.254C451.196 117.09 450.614 115.57 450.614 113.695V84.401C450.614 83.1723 451.034 82.17 451.875 81.394C452.716 80.618 453.783 80.23 455.076 80.23C456.305 80.23 457.307 80.618 458.083 81.394C458.924 82.17 459.344 83.1723 459.344 84.401V109.136C459.344 111.076 460.314 112.046 462.254 112.046H470.887C472.051 112.046 472.989 112.434 473.7 113.21C474.476 113.921 474.864 114.859 474.864 116.023C474.864 117.187 474.476 118.157 473.7 118.933C472.989 119.644 472.051 120 470.887 120H456.919ZM508.875 120.97C507.711 120.97 506.676 120.582 505.771 119.806C504.93 118.965 504.51 117.995 504.51 116.896V87.02C504.51 85.1447 505.092 83.625 506.256 82.461C507.42 81.297 508.939 80.715 510.815 80.715H520.612C524.492 80.715 527.693 81.8143 530.215 84.013C532.801 86.2117 534.095 89.1217 534.095 92.743C534.095 96.6877 532.834 99.8887 530.312 102.346C527.79 104.803 524.589 106.032 520.709 106.032H514.986C513.692 106.032 513.046 106.679 513.046 107.972L513.24 116.896C513.24 117.995 512.787 118.965 511.882 119.806C511.041 120.582 510.039 120.97 508.875 120.97ZM514.501 98.272H519.642C523.651 98.272 525.656 96.623 525.656 93.325C525.656 90.0917 523.78 88.475 520.03 88.475H514.501C513.531 88.475 513.046 88.96 513.046 89.93V96.817C513.046 97.787 513.531 98.272 514.501 98.272ZM541.817 120.97C540.782 120.97 539.78 120.582 538.81 119.806C537.904 119.03 537.452 118.028 537.452 116.799C537.452 116.282 537.549 115.732 537.743 115.15L549.965 83.237C550.417 82.073 551.161 81.2 552.196 80.618C553.23 80.036 554.297 79.745 555.397 79.745C556.561 79.745 557.66 80.036 558.695 80.618C559.794 81.2 560.57 82.073 561.023 83.237L574.118 114.956C574.247 115.215 574.312 115.473 574.312 115.732C574.312 115.991 574.312 116.249 574.312 116.508C574.312 117.866 573.859 118.933 572.954 119.709C572.048 120.485 571.046 120.873 569.947 120.873C569.171 120.873 568.395 120.647 567.619 120.194C566.907 119.806 566.39 119.159 566.067 118.254L563.254 110.688C563.189 110.3 562.93 110.106 562.478 110.106H549.383C548.93 110.106 548.639 110.3 548.51 110.688L545.794 118.351C545.341 119.192 544.759 119.838 544.048 120.291C543.336 120.744 542.593 120.97 541.817 120.97ZM552.875 102.54H558.598C558.986 102.54 559.277 102.411 559.471 102.152C559.729 101.829 559.794 101.441 559.665 100.988L557.143 94.101C556.755 93.0663 556.27 92.549 555.688 92.549C555.106 92.549 554.621 93.0987 554.233 94.198L551.808 101.085C551.678 101.473 551.711 101.829 551.905 102.152C552.099 102.411 552.422 102.54 552.875 102.54ZM586.355 120.97C585.191 120.97 584.189 120.582 583.348 119.806C582.507 118.965 582.087 117.995 582.087 116.896V87.02C582.087 85.1447 582.669 83.625 583.833 82.461C585.062 81.297 586.678 80.715 588.683 80.715H598.383C602.328 80.715 605.496 81.879 607.889 84.207C610.346 86.535 611.575 89.445 611.575 92.937C611.575 95.0063 611.025 96.9463 609.926 98.757C608.827 100.568 607.242 102.023 605.173 103.122C606.078 103.575 606.887 104.189 607.598 104.965C608.374 105.741 608.988 106.679 609.441 107.778L612.642 115.15C612.965 115.926 613.127 116.573 613.127 117.09C613.127 118.254 612.674 119.224 611.769 120C610.864 120.711 609.861 121.067 608.762 121.067C608.051 121.067 607.339 120.873 606.628 120.485C605.981 120.097 605.464 119.483 605.076 118.642L601.39 109.815C600.743 108.263 599.87 107.164 598.771 106.517C597.736 105.806 596.508 105.45 595.085 105.45H592.563C591.27 105.45 590.623 106.097 590.623 107.39V116.896C590.623 117.995 590.203 118.965 589.362 119.806C588.521 120.582 587.519 120.97 586.355 120.97ZM592.078 98.175H597.995C599.612 98.175 600.873 97.7223 601.778 96.817C602.748 95.9117 603.233 94.7477 603.233 93.325C603.233 91.8377 602.748 90.6737 601.778 89.833C600.873 88.9277 599.612 88.475 597.995 88.475H592.078C591.108 88.475 590.623 88.96 590.623 89.93V96.72C590.623 97.69 591.108 98.175 592.078 98.175ZM625.241 120.97C624.012 120.97 622.977 120.582 622.137 119.806C621.296 119.03 620.876 118.028 620.876 116.799V84.401C620.876 83.1723 621.296 82.17 622.137 81.394C622.977 80.618 624.012 80.23 625.241 80.23C626.534 80.23 627.569 80.618 628.345 81.394C629.185 82.17 629.606 83.1723 629.606 84.401V92.937C629.606 94.0363 629.897 94.586 630.479 94.586C630.802 94.586 631.158 94.3597 631.546 93.907L642.895 81.782C643.929 80.7473 645.029 80.23 646.193 80.23C647.421 80.23 648.488 80.6503 649.394 81.491C650.299 82.3317 650.752 83.334 650.752 84.498C650.752 85.5327 650.331 86.4703 649.491 87.311L637.948 98.854L650.849 113.598C651.301 114.051 651.592 114.536 651.722 115.053C651.851 115.57 651.916 116.088 651.916 116.605C651.916 117.769 651.463 118.804 650.558 119.709C649.652 120.55 648.618 120.97 647.454 120.97C646.225 120.97 645.093 120.453 644.059 119.418L632.031 104.674L631.255 105.45C630.543 106.161 630.091 106.84 629.897 107.487C629.703 108.134 629.606 108.942 629.606 109.912V116.799C629.606 118.028 629.185 119.03 628.345 119.806C627.569 120.582 626.534 120.97 625.241 120.97Z" fill="black"/>
<path d="M274.191 189.67C273.744 189.67 273.342 189.514 272.985 189.201C272.672 188.933 272.538 188.509 272.583 187.928L275.598 164.076C275.687 163.451 275.978 162.982 276.469 162.669C277.005 162.356 277.586 162.2 278.211 162.2C278.747 162.2 279.238 162.334 279.685 162.602C280.176 162.825 280.511 163.205 280.69 163.741L286.586 179.285C286.854 179.866 287.122 180.156 287.39 180.156C287.613 180.156 287.859 179.866 288.127 179.285L293.956 163.741C294.179 163.205 294.514 162.825 294.961 162.602C295.408 162.334 295.899 162.2 296.435 162.2C297.105 162.2 297.686 162.356 298.177 162.669C298.713 162.982 299.003 163.451 299.048 164.076L302.063 187.928C302.152 188.509 302.018 188.933 301.661 189.201C301.304 189.514 300.902 189.67 300.455 189.67C300.098 189.67 299.763 189.536 299.45 189.268C299.137 189.045 298.936 188.71 298.847 188.263L296.569 167.962C296.48 167.605 296.346 167.426 296.167 167.426C295.988 167.426 295.81 167.582 295.631 167.895L289.4 184.042C288.909 185.069 288.216 185.583 287.323 185.583C286.474 185.583 285.804 185.069 285.313 184.042L279.015 167.895C278.881 167.582 278.702 167.426 278.479 167.426C278.3 167.426 278.166 167.605 278.077 167.962L275.799 188.263C275.754 188.71 275.553 189.045 275.196 189.268C274.883 189.536 274.548 189.67 274.191 189.67ZM319.467 189.67C319.065 189.67 318.686 189.514 318.328 189.201C317.971 188.888 317.792 188.509 317.792 188.062C317.792 187.883 317.837 187.66 317.926 187.392L327.172 163.674C327.396 163.049 327.753 162.602 328.244 162.334C328.78 162.021 329.316 161.865 329.852 161.865C331.192 161.865 332.086 162.468 332.532 163.674L341.778 187.392C341.868 187.66 341.912 187.883 341.912 188.062C341.912 188.509 341.734 188.888 341.376 189.201C341.019 189.514 340.639 189.67 340.237 189.67C339.567 189.67 339.076 189.29 338.763 188.531L336.552 182.769C336.195 181.876 335.57 181.429 334.676 181.429H325.028C324.135 181.429 323.51 181.876 323.152 182.769L320.941 188.531C320.629 189.29 320.137 189.67 319.467 189.67ZM325.899 178.682H333.805C334.565 178.682 334.81 178.302 334.542 177.543L330.857 167.426C330.589 166.711 330.254 166.354 329.852 166.354C329.45 166.354 329.115 166.711 328.847 167.426L325.162 177.543C324.894 178.302 325.14 178.682 325.899 178.682ZM361.971 189C361.078 189 360.296 188.754 359.626 188.263C359.001 187.772 358.688 186.99 358.688 185.918V165.416C358.688 164.433 358.979 163.719 359.559 163.272C360.14 162.781 360.81 162.535 361.569 162.535H367.532C370.078 162.535 372.379 163.026 374.433 164.009C376.488 164.947 378.118 166.399 379.324 168.364C380.53 170.285 381.133 172.719 381.133 175.667C381.133 177.945 380.642 180.111 379.659 182.166C378.677 184.176 377.292 185.829 375.505 187.124C373.763 188.375 371.664 189 369.207 189H361.971ZM364.249 186.253H367.8C369.944 186.253 371.776 185.784 373.294 184.846C374.813 183.863 375.974 182.568 376.778 180.96C377.627 179.352 378.029 177.565 377.984 175.6C377.94 172.384 376.979 169.883 375.103 168.096C373.272 166.309 370.815 165.416 367.733 165.416H364.249C362.686 165.416 361.904 166.198 361.904 167.761V183.908C361.904 185.471 362.686 186.253 364.249 186.253ZM401.512 189C400.529 189 399.725 188.732 399.1 188.196C398.519 187.66 398.229 186.856 398.229 185.784V165.483C398.229 164.634 398.497 163.942 399.033 163.406C399.614 162.825 400.328 162.535 401.177 162.535H412.232C412.723 162.535 413.081 162.691 413.304 163.004C413.527 163.317 413.639 163.674 413.639 164.076C413.639 164.433 413.505 164.746 413.237 165.014C412.969 165.282 412.634 165.416 412.232 165.416H403.79C402.227 165.416 401.445 166.198 401.445 167.761V171.848C401.445 173.411 402.227 174.193 403.79 174.193H411.294C412.232 174.193 412.701 174.662 412.701 175.6C412.701 176.449 412.232 176.873 411.294 176.873H403.79C402.227 176.873 401.445 177.655 401.445 179.218V183.774C401.445 185.337 402.227 186.119 403.79 186.119H412.567C413.103 186.119 413.46 186.275 413.639 186.588C413.862 186.901 413.974 187.236 413.974 187.593C413.974 187.906 413.862 188.218 413.639 188.531C413.416 188.844 413.058 189 412.567 189H401.512ZM433.299 189.67C432.852 189.67 432.472 189.514 432.16 189.201C431.892 188.888 431.758 188.531 431.758 188.129V163.406C431.758 162.915 431.892 162.535 432.16 162.267C432.472 161.999 432.852 161.865 433.299 161.865C433.79 161.865 434.192 161.999 434.505 162.267C434.817 162.535 434.974 162.915 434.974 163.406V188.129C434.974 188.531 434.817 188.888 434.505 189.201C434.192 189.514 433.79 189.67 433.299 189.67ZM455.556 189.67C455.11 189.67 454.752 189.514 454.484 189.201C454.216 188.888 454.082 188.531 454.082 188.129V165.684C454.082 164.523 454.373 163.719 454.953 163.272C455.579 162.781 456.405 162.535 457.432 162.535H464.199C466.433 162.535 468.376 163.205 470.028 164.545C471.681 165.84 472.507 167.672 472.507 170.039C472.507 172.049 471.971 173.746 470.899 175.131C469.872 176.471 468.577 177.342 467.013 177.744C467.683 177.923 468.376 178.414 469.09 179.218C469.805 179.977 470.408 180.96 470.899 182.166L473.043 187.459C473.133 187.727 473.177 187.95 473.177 188.129C473.177 188.576 473.021 188.933 472.708 189.201C472.44 189.514 472.083 189.67 471.636 189.67C470.966 189.67 470.475 189.313 470.162 188.598L467.683 182.635C467.103 181.161 466.187 180.067 464.936 179.352C463.686 178.637 462.413 178.28 461.117 178.28H459.442C457.879 178.28 457.097 179.062 457.097 180.625L457.231 188.129C457.231 188.531 457.075 188.888 456.762 189.201C456.45 189.514 456.048 189.67 455.556 189.67ZM459.442 175.533H463.663C465.093 175.533 466.388 175.109 467.549 174.26C468.755 173.411 469.358 172.161 469.358 170.508C469.358 168.677 468.778 167.359 467.616 166.555C466.5 165.751 465.227 165.349 463.797 165.349H459.442C457.879 165.349 457.097 166.131 457.097 167.694V173.188C457.097 174.751 457.879 175.533 459.442 175.533ZM489.951 189.67C489.549 189.67 489.169 189.514 488.812 189.201C488.455 188.888 488.276 188.509 488.276 188.062C488.276 187.883 488.321 187.66 488.41 187.392L497.656 163.674C497.879 163.049 498.237 162.602 498.728 162.334C499.264 162.021 499.8 161.865 500.336 161.865C501.676 161.865 502.569 162.468 503.016 163.674L512.262 187.392C512.351 187.66 512.396 187.883 512.396 188.062C512.396 188.509 512.217 188.888 511.86 189.201C511.503 189.514 511.123 189.67 510.721 189.67C510.051 189.67 509.56 189.29 509.247 188.531L507.036 182.769C506.679 181.876 506.053 181.429 505.16 181.429H495.512C494.619 181.429 493.993 181.876 493.636 182.769L491.425 188.531C491.112 189.29 490.621 189.67 489.951 189.67ZM496.383 178.682H504.289C505.048 178.682 505.294 178.302 505.026 177.543L501.341 167.426C501.073 166.711 500.738 166.354 500.336 166.354C499.934 166.354 499.599 166.711 499.331 167.426L495.646 177.543C495.378 178.302 495.624 178.682 496.383 178.682Z" fill="black"/>
<path d="M94.3496 25.7317L94.3496 1.60823C94.3496 0.720031 95.0696 3.14735e-08 95.9578 7.02981e-08C96.846 1.09123e-07 97.5661 0.720031 97.5661 1.60823L97.5661 25.7317C97.5661 26.6199 96.846 27.34 95.9578 27.34C95.0696 27.34 94.3496 26.6199 94.3496 25.7317Z" fill="black"/>
<path d="M2.68082 164.04H192.452C193.933 164.04 195.133 165.24 195.133 166.72C195.133 168.201 193.933 169.401 192.452 169.401H2.68082C1.20048 169.401 0.000429153 168.201 0.000429153 166.72C0.000429153 165.24 1.20048 164.04 2.68082 164.04Z" fill="black"/>
<path d="M28.7916 187.627H166.028C167.212 187.627 168.172 188.827 168.172 190.307C168.172 191.788 167.212 192.988 166.028 192.988H28.7916C27.6073 192.988 26.6473 191.788 26.6473 190.307C26.6473 188.827 27.6073 187.627 28.7916 187.627Z" fill="black"/>
<path d="M60.955 209.606H133.862C135.046 209.606 136.006 210.806 136.006 212.287C136.006 213.767 135.046 214.967 133.862 214.967H60.955C59.7707 214.967 58.8106 213.767 58.8106 212.287C58.8106 210.806 59.7707 209.606 60.955 209.606Z" fill="black"/>
<path d="M158.961 59.7127L171.305 52.7438C172.078 52.3071 173.059 52.5801 173.496 53.3536C173.932 54.127 173.659 55.108 172.886 55.5447L160.543 62.5136C159.769 62.9503 158.788 62.6773 158.352 61.9038C157.915 61.1304 158.188 60.1494 158.961 59.7127Z" fill="black"/>
<path d="M33.4436 60.8608L21.6498 53.3556C20.9004 52.8788 20.6795 51.8847 21.1564 51.1354C21.6332 50.386 22.6273 50.1651 23.3766 50.642L35.1705 58.1472C35.9197 58.6241 36.1407 59.6181 35.6639 60.3674C35.187 61.1167 34.193 61.3375 33.4436 60.8608Z" fill="black"/>
<path d="M59.7168 34.5703L48.9952 15.8075C48.5545 15.0363 48.8224 14.0539 49.5936 13.6132C50.3648 13.1726 51.3472 13.4405 51.7878 14.2117L62.5095 32.9745C62.9501 33.7457 62.6822 34.7281 61.911 35.1687C61.1399 35.6094 60.1575 35.3414 59.7168 34.5703Z" fill="black"/>
<path d="M131.621 33.9349L144.487 15.1721C144.989 14.4395 145.99 14.2529 146.723 14.7552C147.455 15.2575 147.642 16.2585 147.14 16.9911L134.274 35.7539C133.771 36.4863 132.77 36.673 132.038 36.1708C131.305 35.6685 131.119 34.6674 131.621 33.9349Z" fill="black"/>
<path d="M140.375 57.2777C140.347 57.2463 140.319 57.215 140.29 57.185L138.488 55.3319L138.399 55.2441L136.503 53.4686C136.471 53.4391 136.439 53.4102 136.406 53.3823L134.415 51.6903L134.317 51.6116L132.24 50.0082L132.139 49.9339L129.979 48.4227L129.872 48.3517L127.631 46.9372L127.523 46.8726L125.206 45.5571L125.091 45.4957L122.705 44.2882C122.668 44.2695 122.63 44.2516 122.592 44.2346L120.141 43.1318L120.023 43.0821L117.508 42.0916L117.389 42.0477L114.821 41.1712C114.78 41.1572 114.738 41.144 114.697 41.132L112.078 40.3751L111.956 40.3426L109.294 39.7039L109.169 39.6771L106.468 39.1603L106.341 39.1388L103.608 38.7483L103.484 38.7337L100.723 38.4661C100.679 38.4619 100.635 38.4584 100.592 38.4563L97.8102 38.3206C97.7687 38.3186 97.727 38.3174 97.6854 38.3173L94.8906 38.3076L94.7597 38.31L91.9582 38.4334C91.9159 38.4353 91.8734 38.4382 91.8313 38.442L89.0257 38.6952L88.9005 38.7097L86.1006 39.092C86.0577 39.0978 86.0147 39.1046 85.9722 39.1125L83.1836 39.628L83.0587 39.6543L80.2885 40.2999L80.1631 40.3321L77.4162 41.1105L77.2948 41.1481L74.5799 42.0542L74.4603 42.0971L71.7807 43.1322L71.6623 43.1814L69.0268 44.3438C68.9877 44.3611 68.9488 44.3789 68.9106 44.398L66.324 45.6869L66.213 45.7456L63.6811 47.1564L63.5695 47.2223L61.1022 48.7556L60.9963 48.8249L58.596 50.476L58.4933 50.5507L56.1663 52.3173C56.1325 52.3429 56.0994 52.3695 56.0669 52.3967L53.8208 54.2764C53.7878 54.304 53.7554 54.3321 53.7239 54.3612L51.5657 56.3503C51.5353 56.3783 51.5056 56.4074 51.4765 56.4368L49.4066 58.5291C49.3767 58.5593 49.3478 58.5904 49.3194 58.622L47.346 60.8167C47.3175 60.8483 47.2898 60.8807 47.2629 60.9136L45.3923 63.2069C45.3657 63.2394 45.34 63.2727 45.315 63.3065L43.5522 65.6896C43.5273 65.7233 43.5031 65.7577 43.4798 65.7925L41.8271 68.2642C41.804 68.2988 41.7816 68.3339 41.7601 68.3695L40.223 70.9225C40.2011 70.9589 40.1802 70.9958 40.1601 71.0332L38.7437 73.6654C38.7239 73.7023 38.705 73.74 38.687 73.7778L37.3955 76.4804C37.3774 76.5182 37.3604 76.5565 37.3441 76.5951L36.1796 79.3664C36.1634 79.4051 36.1483 79.4444 36.134 79.4838L35.1026 82.3127C35.0885 82.3516 35.0749 82.3908 35.0626 82.4302L34.1651 85.3135C34.1526 85.3538 34.1409 85.3946 34.1303 85.4354L33.3712 88.3687C33.3608 88.4092 33.3509 88.4502 33.3424 88.4911L32.725 91.4628C32.7165 91.5035 32.7089 91.5445 32.7024 91.5855L32.226 94.5957C32.2194 94.637 32.2138 94.6786 32.2093 94.7203L31.879 97.7565C31.8746 97.7975 31.8713 97.8388 31.8688 97.8798L31.6827 100.94C31.6801 100.983 31.6788 101.026 31.6783 101.068L31.6447 104.143C31.6443 104.184 31.6447 104.225 31.6461 104.266L31.7582 107.348C31.7597 107.39 31.7622 107.432 31.7658 107.473L32.0281 110.558C32.0317 110.599 32.0364 110.641 32.042 110.683L32.4563 113.764C32.4618 113.804 32.4683 113.845 32.4758 113.885L33.0378 116.951C33.0454 116.992 33.0539 117.033 33.0635 117.074L33.7777 120.121C33.7872 120.162 33.7977 120.203 33.8092 120.243L34.6727 123.261C34.6841 123.301 34.6964 123.341 34.7097 123.38L35.7215 126.366C35.735 126.405 35.7495 126.445 35.7649 126.484L36.925 129.429C36.9402 129.468 36.956 129.506 36.9731 129.544L38.278 132.441C38.2951 132.479 38.3128 132.516 38.3316 132.553L39.7792 135.396C39.7981 135.433 39.8181 135.47 39.8387 135.506L41.4267 138.288C41.4475 138.325 41.469 138.361 41.4916 138.396L43.2177 141.108C43.2405 141.144 43.2643 141.179 43.2888 141.214L45.1532 143.852C46.0003 145.05 47.6818 145.347 48.909 144.515C50.1361 143.683 50.444 142.037 49.5969 140.838L47.7655 138.246L46.1141 135.652L44.5872 132.976L43.1919 130.236L41.9427 127.462L40.8279 124.632L39.8584 121.771L39.0272 118.865L38.3417 115.94L37.8014 112.993L37.4049 110.044L37.1536 107.084L37.0453 104.131L37.0776 101.181L37.2562 98.2376L37.5731 95.3266L38.0299 92.44L38.6213 89.5924L39.3494 86.78L40.212 84.0113L41.1954 81.3131L42.3131 78.652L43.5545 76.0536L44.9079 73.5394L46.3761 71.1007L47.961 68.7309L49.6563 66.4388L51.4399 64.2531L53.3238 62.1574L55.3034 60.1552L57.3834 58.2381L59.5276 56.4453L61.7492 54.7584L64.0428 53.1806L66.3989 51.7162L68.8192 50.3672L71.2979 49.1324L73.8063 48.0258L76.3722 47.0348L78.9635 46.1694L81.5948 45.4239L84.2308 44.8096L86.9005 44.3162L89.564 43.9523L92.25 43.709L94.9143 43.5917L97.5842 43.601L100.247 43.7309L102.87 43.9852L105.48 44.3578L108.064 44.8525L110.591 45.4587L113.087 46.1802L115.534 47.0152L117.928 47.958L120.268 49.0102L122.541 50.1601L124.749 51.4134L126.881 52.7585L128.944 54.2024L130.921 55.7286L132.814 57.3364L134.614 59.0226L136.333 60.7922L137.943 62.6134L139.473 64.5213L140.891 66.476L142.207 68.4868L143.424 70.5517L144.532 72.6605L145.532 74.8072L146.428 77.0029L147.205 79.2094L147.877 81.4511L148.434 83.7138L148.877 85.9642L149.211 88.2385L149.434 90.533L149.543 92.8039L149.543 95.084L149.432 97.3299L149.213 99.5839L148.887 101.797L148.457 103.981L147.923 106.137L147.286 108.263L146.554 110.334L145.72 112.374L144.798 114.351L143.785 116.282L142.68 118.156L141.502 119.956L140.233 121.704L138.89 123.376L137.473 124.981L135.991 126.506L134.441 127.956L132.835 129.323L131.167 130.612L129.453 131.811L127.689 132.923L125.874 133.954L124.033 134.887L122.157 135.73L120.243 136.484L118.303 137.144L116.359 137.707L114.384 138.181L112.41 138.556L110.436 138.838L108.439 139.028L106.461 139.125L104.488 139.127L102.533 139.041L100.581 138.862L98.6639 138.595L96.771 138.242L94.9018 137.801L93.0715 137.277L91.2661 136.667L89.5269 135.987L87.8092 135.223L86.1519 134.388L84.5437 133.479L82.9886 132.503L81.4911 131.457L80.058 130.355L78.6894 129.193L77.3797 127.97L76.148 126.704L74.9834 125.385L73.8848 124.012L72.8672 122.609L71.9231 121.167L71.0569 119.692L70.2643 118.179L69.5602 116.659L68.9236 115.087L68.3751 113.524L67.9054 111.939L67.5142 110.325L67.2051 108.724L66.9769 107.125L66.828 105.52L66.7589 103.917L66.7671 102.326L66.8532 100.741L67.0134 99.1761L67.2498 97.6342L67.5589 96.1162L67.9412 94.6234L68.3914 93.1577L68.9077 91.7307L69.4953 90.3251L70.1438 88.9618L70.8506 87.6488L71.6171 86.3736L72.4452 85.1374L73.3153 83.9616L74.2492 82.8242L75.2221 81.7461L76.2386 80.7246L77.302 79.7533L78.3885 78.8524L79.5313 77.9948L80.6901 77.2082L81.8857 76.4761L83.107 75.8062L84.346 75.2005L85.6038 74.6594L86.8791 74.1799L88.1702 73.7648L89.4636 73.4136L90.7607 73.1279L92.0603 72.9047L93.3628 72.743L94.6565 72.645L95.9607 72.6076L97.2348 72.6325L98.5065 72.7165L99.7508 72.8578L100.991 73.0593L102.206 73.3158L103.388 73.6248L104.542 73.988L105.673 74.4011L106.775 74.8666L107.837 75.3737L108.873 75.9329L109.863 76.5306L110.813 77.1688L111.732 77.8501L112.594 78.5596L113.416 79.3041L114.193 80.0795L114.932 80.8949L115.614 81.7216L116.251 82.5796L116.84 83.4602L117.38 84.3578L117.861 85.2585L118.298 86.1822L118.685 87.1184L119.023 88.0643L119.309 89.0117L119.543 89.9615L119.729 90.9128L119.864 91.8523L119.952 92.8013L119.992 93.736L119.984 94.6553L119.932 95.5747L119.835 96.4764L119.692 97.3666L119.509 98.225L119.284 99.0754L119.021 99.9032L118.717 100.708L118.377 101.489L118.009 102.237L117.606 102.955L117.17 103.649L116.705 104.317L116.213 104.951L115.693 105.555L115.156 106.122L114.598 106.654L114.019 107.151L113.424 107.615L112.814 108.043L112.202 108.429L111.561 108.788L110.921 109.108L110.279 109.39L109.624 109.637L108.976 109.847L108.321 110.024L107.672 110.167L107.034 110.272L106.389 110.345L105.753 110.387L105.137 110.397L104.514 110.374L103.916 110.322L103.324 110.242L102.751 110.134L102.193 109.998L101.666 109.842L101.144 109.658L100.647 109.452L100.165 109.224L99.7088 108.978L99.2785 108.716L98.8695 108.438L98.4844 108.145L98.1249 107.839L97.7782 107.51L97.4689 107.186L97.1866 106.854L96.9239 106.508L96.6848 106.157L96.4748 105.808L96.288 105.455L96.1253 105.1L95.9852 104.744L95.8683 104.388L95.7763 104.049L95.7075 103.711L95.6583 103.372L95.6303 103.05L95.62 102.728L95.6288 102.429L95.6556 102.137L95.6986 101.85L95.7559 101.577L95.8281 101.317L95.908 101.084L96.0031 100.852L96.1051 100.642L96.2173 100.445L96.3336 100.267L96.4577 100.102L96.5879 99.9492L96.7127 99.8214L96.8433 99.7036L96.9814 99.5938L97.0981 99.5137L97.2172 99.4437L97.3515 99.376L97.4558 99.3322L97.5678 99.2949L97.6741 99.267L97.7502 99.253L97.8565 99.2412L97.9241 99.239L97.9651 99.2403L98.0254 99.248L98.0685 99.2565L98.1097 99.2684L98.2461 99.3193C99.6385 99.8378 101.2 99.1523 101.733 97.7884C102.267 96.4246 101.571 94.8989 100.179 94.3804L99.9422 94.2924L99.8429 94.2575C99.8097 94.2466 99.7763 94.2362 99.7428 94.2266L99.4963 94.1556C99.425 94.1352 99.3526 94.1177 99.2799 94.103L99.0215 94.0512L98.8158 94.0175L98.5489 93.9847L98.441 93.9737C98.405 93.9707 98.3688 93.9685 98.3327 93.967L98.0591 93.9545L97.9392 93.9519C97.8993 93.9519 97.8594 93.9528 97.8195 93.9545L97.538 93.9667L97.3552 93.9807L97.069 94.0122L96.8781 94.0402L96.5884 94.0927C96.5156 94.1059 96.4432 94.1222 96.3717 94.1412L96.0812 94.2185L95.9227 94.2657L95.6304 94.3627C95.5623 94.3853 95.4948 94.4107 95.4287 94.4385L95.1398 94.5603C95.0827 94.5843 95.0261 94.6103 94.9709 94.6381L94.6828 94.7835L94.5323 94.8651L94.247 95.0323L94.0796 95.1384L93.8027 95.329L93.6503 95.4424L93.3813 95.6567C93.3389 95.6905 93.2973 95.7257 93.2571 95.7619L92.9963 95.9963C92.9535 96.0349 92.9117 96.0749 92.8715 96.1161L92.6206 96.3734C92.5779 96.4171 92.5368 96.4622 92.4973 96.5086L92.2593 96.7883C92.2243 96.8294 92.1905 96.8717 92.1582 96.9148L91.9334 97.2139C91.8993 97.2593 91.8666 97.3058 91.8356 97.3532L91.6256 97.6737C91.5951 97.7204 91.5662 97.7684 91.5387 97.8168L91.3457 98.1564C91.3184 98.2045 91.2927 98.2533 91.2686 98.3029L91.0941 98.6609C91.07 98.7104 91.0472 98.7604 91.0263 98.8112L90.8705 99.191C90.8501 99.2403 90.8312 99.2903 90.814 99.3407L90.6803 99.7319C90.6635 99.7809 90.6482 99.8304 90.6344 99.8804L90.5209 100.291C90.5069 100.342 90.4944 100.394 90.4835 100.446L90.3941 100.867C90.3834 100.918 90.3742 100.969 90.3665 101.021L90.3014 101.459C90.2942 101.508 90.2883 101.556 90.2838 101.605L90.2425 102.054C90.2376 102.107 90.2341 102.161 90.2326 102.214L90.2195 102.673C90.218 102.726 90.218 102.778 90.2197 102.83L90.2343 103.296C90.2359 103.346 90.2389 103.395 90.2432 103.444L90.2853 103.921C90.2896 103.97 90.2954 104.019 90.3025 104.068L90.3731 104.549C90.38 104.596 90.3884 104.643 90.3979 104.69L90.4965 105.176C90.5075 105.23 90.5201 105.283 90.5345 105.336L90.6669 105.825C90.679 105.869 90.6924 105.913 90.7068 105.957L90.8676 106.446C90.883 106.493 90.8996 106.539 90.9177 106.585L91.1106 107.075C91.128 107.119 91.1467 107.164 91.1665 107.207L91.3884 107.692C91.4085 107.735 91.43 107.779 91.4525 107.821L91.7067 108.304C91.7296 108.347 91.7538 108.39 91.7791 108.432L92.0657 108.909C92.0914 108.952 92.1184 108.994 92.1465 109.035L92.4648 109.502C92.4901 109.539 92.5166 109.575 92.5438 109.611L92.8913 110.068C92.9198 110.106 92.9491 110.143 92.9796 110.179L93.3584 110.625C93.3922 110.665 93.4275 110.704 93.4637 110.742L93.8761 111.174C93.9065 111.205 93.9377 111.237 93.9697 111.267L94.4104 111.684C94.4445 111.717 94.4796 111.748 94.5154 111.779L94.9829 112.178C95.0193 112.209 95.0568 112.238 95.0948 112.267L95.5942 112.649C95.6326 112.678 95.6717 112.707 95.7117 112.734L96.2387 113.093C96.2775 113.119 96.3172 113.144 96.3574 113.169L96.9118 113.506C96.9516 113.53 96.992 113.553 97.033 113.575L97.6133 113.887C97.6541 113.909 97.6954 113.931 97.7374 113.95L98.3417 114.237C98.3825 114.256 98.424 114.275 98.4657 114.292L99.0945 114.552C99.1401 114.571 99.1861 114.589 99.2327 114.605L99.8845 114.835C99.9264 114.85 99.9688 114.863 100.011 114.876L100.681 115.076C100.727 115.089 100.774 115.102 100.821 115.114L101.512 115.28C101.557 115.291 101.602 115.301 101.648 115.309L102.357 115.443C102.403 115.452 102.449 115.459 102.496 115.465L103.222 115.564C103.267 115.57 103.311 115.576 103.357 115.579L104.096 115.643C104.14 115.647 104.184 115.65 104.228 115.652L104.981 115.68C105.03 115.682 105.08 115.682 105.129 115.681L105.891 115.67C105.936 115.669 105.982 115.667 106.028 115.664L106.8 115.613C106.843 115.61 106.887 115.607 106.93 115.602L107.707 115.514C107.753 115.508 107.799 115.502 107.845 115.494L108.627 115.366C108.675 115.358 108.722 115.349 108.77 115.338L109.553 115.166C109.597 115.157 109.64 115.146 109.683 115.134L110.468 114.921C110.51 114.91 110.553 114.897 110.594 114.884L111.376 114.631C111.419 114.617 111.462 114.602 111.504 114.586L112.281 114.292C112.325 114.275 112.368 114.258 112.41 114.239L113.182 113.902C113.224 113.883 113.266 113.863 113.308 113.842L114.068 113.462C114.106 113.443 114.144 113.423 114.181 113.402L114.931 112.981C114.971 112.959 115.011 112.935 115.05 112.91L115.786 112.447C115.824 112.423 115.861 112.398 115.898 112.372L116.619 111.867C116.656 111.84 116.693 111.813 116.729 111.785L117.429 111.24C117.462 111.213 117.495 111.187 117.527 111.159L118.208 110.574L118.311 110.481L118.966 109.856L119.062 109.76L119.693 109.095C119.722 109.064 119.751 109.032 119.778 109L120.382 108.3L120.47 108.192L121.041 107.455L121.119 107.349L121.658 106.577L121.729 106.471L122.236 105.664L122.305 105.548L122.775 104.709C122.797 104.669 122.818 104.629 122.839 104.588L123.267 103.718L123.32 103.605L123.711 102.706L123.759 102.587L124.109 101.661L124.154 101.531L124.457 100.58L124.493 100.456L124.751 99.4814L124.78 99.3597L124.992 98.3645L125.017 98.2319L125.179 97.2174L125.196 97.087L125.308 96.0568L125.319 95.9284L125.379 94.8821L125.383 94.755L125.392 93.6999L125.39 93.5667L125.344 92.5015L125.336 92.3751L125.236 91.3024L125.221 91.1725L125.067 90.0965L125.045 89.9682L124.835 88.8922C124.827 88.8504 124.818 88.8088 124.808 88.7675L124.542 87.6914L124.507 87.5639L124.183 86.4928L124.143 86.371L123.763 85.3068L123.717 85.1864L123.281 84.132L123.229 84.0143L122.737 82.9754L122.679 82.8605L122.131 81.8347L122.065 81.7184L121.459 80.7121L121.392 80.6071L120.734 79.6227C120.71 79.5873 120.685 79.5522 120.66 79.5179L119.947 78.5574L119.864 78.4503L119.096 77.5195L119.015 77.4262L118.196 76.5222L118.105 76.4265L117.235 75.5577L117.14 75.4683L116.221 74.6348C116.189 74.6061 116.157 74.5779 116.123 74.5506L115.154 73.7543L115.049 73.6724L114.033 72.9183L113.929 72.8449L112.868 72.1327C112.832 72.1089 112.796 72.0861 112.759 72.064L111.657 71.3977L111.542 71.3319L110.398 70.7151C110.36 70.6942 110.32 70.6742 110.28 70.6552L109.096 70.0896L108.982 70.038L107.764 69.5238C107.723 69.5064 107.681 69.49 107.639 69.4746L106.386 69.0167C106.348 69.0025 106.308 68.989 106.269 68.9766L104.984 68.5724C104.941 68.5588 104.897 68.5463 104.853 68.5348L103.541 68.1923L103.414 68.162L102.075 67.88L101.95 67.8564L100.589 67.6355C100.546 67.6284 100.502 67.6223 100.458 67.6173L99.0746 67.4603L98.9454 67.4485L97.5491 67.3564L97.4216 67.3506L96.0096 67.3231C95.9652 67.3222 95.9203 67.3224 95.8759 67.3237L94.4542 67.3646L94.3252 67.3715L92.8989 67.4794L92.7693 67.4921L91.337 67.6695C91.2937 67.6749 91.2502 67.681 91.2072 67.6884L89.7752 67.9347L89.649 67.9594L88.2224 68.2739L88.0937 68.3054L86.6724 68.6914L86.5509 68.7272L85.1386 69.1818L85.0122 69.2255L83.617 69.7508L83.4996 69.7979L82.1214 70.3906L82.001 70.4462L80.6436 71.11L80.53 71.1687L79.1984 71.8988L79.0856 71.9642L77.7817 72.7629L77.6747 72.8318L76.4017 73.6958L76.2971 73.7707L75.0606 74.699C75.0257 74.7252 74.9912 74.7522 74.9577 74.78L73.7609 75.7725C73.7278 75.8 73.6954 75.8286 73.6636 75.8576L72.5098 76.9117C72.4786 76.9402 72.4481 76.9695 72.4183 76.9995L71.3074 78.1151C71.2766 78.1461 71.2467 78.178 71.2174 78.2104L70.159 79.3833C70.1312 79.4141 70.1044 79.4458 70.078 79.4778L69.0683 80.7076C69.04 80.7421 69.0124 80.7776 68.9859 80.8134L68.0359 82.0978C68.0112 82.1312 67.987 82.1653 67.9639 82.1997L67.0691 83.535C67.0453 83.5705 67.0227 83.6069 67.0007 83.6435L66.1675 85.0291C66.1459 85.065 66.1249 85.1012 66.105 85.138L65.335 86.5687C65.3144 86.6069 65.2947 86.6457 65.276 86.6849L64.5746 88.1594C64.5566 88.1972 64.5393 88.2356 64.5232 88.2741L63.8891 89.7904C63.8725 89.8299 63.8567 89.8699 63.8421 89.9102L63.2801 91.4641C63.2656 91.5041 63.2518 91.5448 63.2393 91.5855L62.7521 93.1722C62.7401 93.2114 62.7286 93.2509 62.7184 93.2906L62.304 94.9085C62.2931 94.9507 62.2833 94.9933 62.2746 95.036L61.9403 96.6824C61.9319 96.7234 61.9244 96.7647 61.918 96.8061L61.6624 98.476C61.6559 98.5184 61.6505 98.561 61.6461 98.6036L61.4729 100.293C61.4686 100.335 61.4655 100.377 61.4632 100.418L61.3709 102.123C61.3686 102.165 61.3674 102.207 61.3672 102.249L61.3585 103.968C61.3583 104.01 61.359 104.051 61.3608 104.093L61.4354 105.819C61.4372 105.861 61.4397 105.904 61.4436 105.946L61.6037 107.677C61.6077 107.72 61.6132 107.763 61.6193 107.805L61.8669 109.538C61.8728 109.58 61.8796 109.621 61.8876 109.663L62.2217 111.391C62.2294 111.431 62.2382 111.471 62.2478 111.51L62.6649 113.231C62.6751 113.273 62.6864 113.315 62.6987 113.356L63.2049 115.066C63.217 115.107 63.2299 115.147 63.2441 115.188L63.838 116.88C63.8515 116.918 63.8661 116.956 63.8814 116.994L64.5596 118.668C64.5756 118.708 64.5923 118.747 64.6102 118.786L65.3737 120.433C65.3914 120.471 65.4099 120.509 65.4294 120.546L66.2774 122.166C66.2971 122.203 66.318 122.24 66.3394 122.277L67.2712 123.864C67.2928 123.9 67.3154 123.937 67.3387 123.972L68.3533 125.522C68.3763 125.557 68.4001 125.592 68.4247 125.625L69.519 127.134C69.5433 127.168 69.5686 127.201 69.5945 127.233L70.7669 128.699C70.7938 128.733 70.8214 128.765 70.8499 128.798L72.0993 130.213C72.1275 130.244 72.1567 130.276 72.1865 130.306L73.5118 131.669C73.5413 131.699 73.5718 131.728 73.6028 131.757L75.0008 133.063C75.0316 133.091 75.063 133.12 75.0952 133.147L76.563 134.393C76.5958 134.42 76.6293 134.447 76.6634 134.474L78.2007 135.656C78.2335 135.681 78.2671 135.705 78.301 135.729L79.8984 136.844C79.9338 136.869 79.9698 136.893 80.0064 136.916L81.6676 137.959C81.7034 137.982 81.7396 138.004 81.7765 138.025L83.4964 138.996C83.5338 139.018 83.5719 139.038 83.6102 139.057L85.3848 139.951C85.4236 139.97 85.4627 139.99 85.5024 140.007L87.3284 140.819C87.3663 140.836 87.4046 140.853 87.4433 140.868L89.3152 141.6C89.3553 141.616 89.396 141.63 89.4369 141.644L91.3537 142.291C91.3942 142.305 91.4351 142.318 91.4762 142.33L93.4333 142.889C93.4743 142.901 93.5156 142.912 93.5572 142.922L95.549 143.392C95.5911 143.402 95.6338 143.411 95.6764 143.419L97.6973 143.796C97.7388 143.804 97.7806 143.81 97.8224 143.816L99.8735 144.103C99.9161 144.109 99.9588 144.113 100.002 144.117L102.074 144.307C102.117 144.311 102.16 144.314 102.203 144.316L104.291 144.408C104.332 144.41 104.374 144.411 104.415 144.411L106.518 144.409C106.562 144.409 106.607 144.408 106.651 144.406L108.76 144.302C108.802 144.3 108.844 144.297 108.885 144.293L110.998 144.092C111.041 144.088 111.084 144.083 111.126 144.077L113.239 143.776C113.281 143.77 113.323 143.763 113.365 143.755L115.468 143.355C115.512 143.347 115.555 143.338 115.598 143.327L117.691 142.825C117.732 142.815 117.773 142.804 117.814 142.792L119.891 142.19C119.931 142.178 119.971 142.166 120.011 142.152L122.066 141.453C122.107 141.439 122.147 141.424 122.187 141.409L124.217 140.609C124.257 140.594 124.296 140.577 124.336 140.56L126.333 139.663C126.372 139.645 126.411 139.626 126.45 139.607L128.41 138.612C128.448 138.593 128.486 138.573 128.524 138.552L130.441 137.462C130.477 137.442 130.513 137.42 130.548 137.398L132.423 136.217C132.46 136.194 132.496 136.17 132.531 136.145L134.353 134.87C134.388 134.846 134.423 134.82 134.457 134.794L136.224 133.428C136.257 133.402 136.29 133.375 136.323 133.348L138.029 131.896L138.123 131.812L139.764 130.277L139.855 130.187L141.428 128.568L141.515 128.475L143.014 126.777C143.042 126.746 143.068 126.714 143.094 126.682L144.516 124.911L144.595 124.809L145.935 122.962L146.008 122.856L147.261 120.943C147.284 120.908 147.305 120.872 147.326 120.837L148.492 118.858C148.514 118.821 148.535 118.783 148.555 118.745L149.627 116.704L149.682 116.593L150.66 114.495L150.711 114.379L151.589 112.23C151.605 112.192 151.619 112.153 151.633 112.114L152.411 109.916C152.425 109.876 152.439 109.835 152.451 109.794L153.121 107.555L153.154 107.434L153.719 105.153L153.746 105.032L154.202 102.72L154.223 102.595L154.568 100.253L154.583 100.127L154.813 97.7607L154.823 97.6369L154.939 95.2539C154.942 95.2118 154.942 95.1696 154.942 95.1274L154.942 92.7311L154.94 92.6063L154.824 90.2052L154.815 90.0799L154.581 87.6749L154.566 87.5501L154.215 85.1483C154.209 85.1067 154.202 85.0653 154.193 85.0241L153.723 82.6318L153.696 82.5115L153.11 80.1324L153.076 80.0082L152.37 77.6518L152.331 77.5346L151.51 75.2027C151.496 75.1631 151.481 75.1238 151.465 75.0849L150.526 72.7826L150.475 72.6668L149.421 70.4037L149.366 70.2924L148.2 68.0724L148.138 67.9609L146.858 65.7894L146.793 65.6845L145.406 63.5647L145.334 63.4607L143.838 61.3994L143.761 61.2982L142.16 59.3015L142.078 59.2051L140.375 57.2777Z" fill="black"/>
</svg>
