<svg width="470" height="618" fill="none" xmlns="http://www.w3.org/2000/svg"><path d="M229 48V3a3 3 0 1 1 6 0v45a3 3 0 1 1-6 0ZM58 306h354a5 5 0 0 1 0 10H58a5 5 0 0 1 0-10ZM106.707 350h256c2.209 0 4 2.239 4 5s-1.791 5-4 5h-256c-2.209 0-4-2.239-4-5s1.791-5 4-5ZM166.707 391h136c2.209 0 4 2.239 4 5s-1.791 5-4 5h-136c-2.209 0-4-2.239-4-5s1.791-5 4-5ZM349.525 111.389l23.025-13a3 3 0 1 1 2.95 5.225l-23.025 13a3.001 3.001 0 0 1-2.95-5.225ZM115.389 113.531l-22-14a3 3 0 1 1 3.22-5.062l22.001 14a3 3 0 0 1-3.221 5.062ZM164.395 64.488l-20-35a3 3 0 1 1 5.209-2.977l20 35a3 3 0 0 1-5.209 2.977ZM298.526 63.303l24-35a3 3 0 1 1 4.948 3.392l-24 35a3 3 0 1 1-4.948-3.392ZM314.857 106.846a5.255 5.255 0 0 0-.159-.173l-3.361-3.457-.166-.164-3.537-3.312a5.563 5.563 0 0 0-.18-.16l-3.715-3.157-.182-.147-3.874-2.99-.189-.14-4.029-2.818-.199-.133-4.181-2.638-.202-.12-4.323-2.455-.213-.114-4.451-2.253a5.586 5.586 0 0 0-.21-.1l-4.574-2.057-.22-.093-4.691-1.847-.221-.082-4.792-1.635a4.85 4.85 0 0 0-.231-.073l-4.884-1.412-.228-.06-4.967-1.192-.233-.05-5.038-.964-.238-.04-5.097-.729-.232-.027-5.149-.5a5.216 5.216 0 0 0-.246-.018l-5.188-.253a5.217 5.217 0 0 0-.233-.006l-5.214-.018-.244.004-5.226.23a5.341 5.341 0 0 0-.236.017l-5.234.472-.234.027-5.222.713c-.08.011-.161.024-.24.038l-5.202.962-.233.05-5.167 1.203-.234.06-5.124 1.453-.227.07-5.064 1.69-.223.08-4.999 1.93-.221.093-4.916 2.168a5.595 5.595 0 0 0-.217.1l-4.825 2.405-.207.11-4.723 2.632-.208.123-4.602 2.86-.198.129-4.477 3.08-.192.14-4.341 3.295a4.526 4.526 0 0 0-.185.148l-4.19 3.506a5.53 5.53 0 0 0-.181.158l-4.026 3.711a5.028 5.028 0 0 0-.166.161l-3.861 3.903c-.056.056-.11.115-.163.173l-3.681 4.094c-.053.059-.105.12-.155.181l-3.49 4.278a6.574 6.574 0 0 0-.144.186l-3.288 4.445a4.153 4.153 0 0 0-.135.192l-3.083 4.611c-.043.065-.085.13-.125.196l-2.867 4.763a6.06 6.06 0 0 0-.118.206l-2.642 4.91c-.037.069-.072.14-.106.21l-2.409 5.042c-.034.07-.065.141-.096.213l-2.172 5.17c-.03.072-.058.146-.085.219l-1.924 5.277c-.026.073-.052.146-.075.219l-1.674 5.379a5.883 5.883 0 0 0-.065.227l-1.416 5.472a5.81 5.81 0 0 0-.054.228l-1.151 5.544c-.016.076-.03.152-.042.229l-.889 5.615a4.607 4.607 0 0 0-.031.232l-.616 5.664a3.506 3.506 0 0 0-.019.23l-.348 5.708c-.004.08-.007.16-.008.24l-.062 5.736c-.001.076-.001.152.002.228l.209 5.751c.003.077.008.155.014.232l.49 5.754c.006.078.015.156.026.233l.772 5.748c.011.076.023.151.037.227l1.048 5.718c.014.077.03.154.048.23l1.332 5.684c.018.076.038.152.059.227l1.611 5.631c.021.074.044.148.069.222l1.887 5.568c.026.075.053.148.081.221l2.164 5.494c.029.072.058.144.09.215l2.434 5.403c.032.071.065.141.1.21l2.701 5.303c.035.069.072.138.111.205l2.962 5.19c.039.068.079.135.121.201l3.22 5.059c.042.067.087.133.133.198l3.477 4.92c1.581 2.236 4.717 2.79 7.006 1.238 2.289-1.553 2.864-4.623 1.284-6.859l-3.417-4.837-3.08-4.838-2.848-4.992-2.603-5.111-2.331-5.175-2.079-5.279-1.809-5.337-1.55-5.421-1.279-5.455-1.008-5.498-.739-5.5-.469-5.523-.202-5.509.06-5.503.333-5.49.591-5.43.853-5.384 1.103-5.312 1.358-5.247 1.609-5.164 1.834-5.034 2.085-4.964 2.316-4.847 2.525-4.69 2.738-4.549 2.957-4.42 3.162-4.276 3.328-4.077 3.514-3.91 3.693-3.735 3.88-3.576 3.999-3.344 4.145-3.147 4.278-2.943 4.395-2.732 4.515-2.516 4.624-2.303 4.679-2.065 4.786-1.848 4.834-1.615 4.908-1.39 4.918-1.146 4.98-.92 4.968-.68 5.011-.453 4.97-.219 4.98.017 4.967.243 4.894.474 4.868.695 4.821.923 4.713 1.13 4.656 1.347 4.565 1.557 4.465 1.759 4.365 1.963 4.241 2.144 4.119 2.338 3.977 2.51 3.849 2.693 3.687 2.847 3.53 2.999 3.358 3.146 3.208 3.301 3.002 3.397 2.854 3.559 2.646 3.646 2.455 3.751 2.271 3.852 2.066 3.934 1.866 4.004 1.67 4.096 1.451 4.116 1.252 4.182 1.04 4.221.826 4.198.622 4.242.416 4.28.204 4.236-.001 4.254-.206 4.189-.409 4.205-.607 4.128-.803 4.074-.996 4.022-1.187 3.965-1.367 3.863-1.556 3.807-1.719 3.686-1.89 3.603-2.06 3.497-2.198 3.357-2.368 3.26-2.505 3.12-2.644 2.994-2.763 2.844-2.891 2.705-2.997 2.55-3.112 2.405-3.196 2.236-3.291 2.074-3.386 1.924-3.434 1.741-3.501 1.573-3.57 1.405-3.617 1.231-3.628 1.051-3.683.885-3.683.698-3.683.526-3.725.355-3.688.181-3.681.004-3.648-.161-3.642-.335-3.575-.497-3.531-.659-3.487-.822-3.414-.978-3.368-1.137-3.244-1.269-3.204-1.426-3.092-1.557-3-1.694-2.901-1.823-2.793-1.95-2.673-2.057-2.553-2.166-2.443-2.281-2.298-2.362-2.172-2.46-2.05-2.562-1.898-2.617-1.761-2.69-1.616-2.751-1.478-2.823-1.314-2.835-1.187-2.933-1.024-2.916-.876-2.957-.729-3.009-.577-2.987-.426-2.982-.278-2.995-.128-2.99.015-2.968.16-2.957.299-2.919.441-2.876.577-2.832.713-2.785.84-2.734.963-2.662 1.096-2.622 1.21-2.543 1.318-2.449 1.43-2.379 1.545-2.306 1.623-2.193 1.742-2.122 1.815-2.011 1.896-1.905 1.984-1.812 2.027-1.681 2.131-1.599 2.162-1.468 2.23-1.366 2.278-1.249 2.312-1.13 2.346-1.009 2.379-.895 2.408-.774 2.413-.655 2.42-.533 2.424-.417 2.43-.301 2.413-.183 2.433-.07 2.376.047 2.373.156 2.321.264 2.314.376 2.266.478 2.205.577 2.151.677 2.111.771 2.056.868 1.98.946 1.933 1.043 1.847 1.115 1.773 1.191 1.713 1.271 1.609 1.323 1.533 1.389 1.449 1.446 1.378 1.521 1.272 1.542 1.188 1.601 1.099 1.643 1.008 1.674.898 1.68.815 1.723.722 1.747.63 1.764.534 1.767.437 1.772.347 1.775.251 1.752.164 1.771.074 1.743-.014 1.715-.098 1.715-.181 1.682-.266 1.661-.341 1.601-.42 1.586-.491 1.544-.567 1.502-.634 1.456-.687 1.395-.751 1.341-.813 1.293-.869 1.247-.916 1.183-.971 1.127-1.002 1.057-1.041.992-1.079.928-1.11.865-1.139.799-1.142.719-1.194.67-1.195.597-1.197.525-1.222.462-1.208.391-1.222.331-1.21.267-1.191.195-1.203.137-1.186.078-1.151.019-1.16-.044-1.116-.096-1.106-.15-1.067-.201-1.041-.253-.984-.293-.974-.343-.927-.383-.898-.426-.852-.458-.802-.488-.763-.519-.719-.547-.67-.572-.647-.612-.577-.604-.527-.621-.49-.645-.446-.654-.391-.651-.349-.658-.303-.663-.262-.665-.218-.664-.171-.632-.129-.631-.091-.633-.053-.6-.019-.601.016-.558.051-.544.08-.535.107-.509.134-.485.149-.435.178-.432.19-.392.209-.368.217-.332.232-.307.243-.286.232-.238.244-.22.258-.205.217-.149.223-.131.25-.126.195-.082.209-.069.198-.052.142-.026.198-.022.126-.005.077.003.112.014.08.016.077.022.255.095c2.597.967 5.51-.311 6.505-2.856.995-2.544-.303-5.39-2.9-6.357l-.441-.164-.186-.065a5.734 5.734 0 0 0-.186-.058l-.46-.132a5.057 5.057 0 0 0-.404-.098l-.482-.097-.384-.063-.497-.061-.202-.021a6.64 6.64 0 0 0-.202-.012l-.51-.023-.224-.005a5.53 5.53 0 0 0-.223.005l-.525.022-.341.027-.534.058-.356.053-.54.097a5.144 5.144 0 0 0-.405.091l-.542.144-.295.088-.546.181c-.127.042-.252.09-.376.142l-.539.227a5.266 5.266 0 0 0-.315.145l-.537.271-.281.152-.532.312-.312.198-.517.356-.284.211-.502.4a5.456 5.456 0 0 0-.232.196l-.486.438c-.08.071-.158.146-.233.223l-.468.48c-.08.081-.156.166-.23.252l-.444.522a5.42 5.42 0 0 0-.189.236l-.419.558a4.659 4.659 0 0 0-.182.26l-.392.598a4.514 4.514 0 0 0-.162.267l-.36.633a5.09 5.09 0 0 0-.144.273l-.326.668a5.842 5.842 0 0 0-.126.28l-.291.709a4.688 4.688 0 0 0-.105.279l-.249.73c-.032.091-.06.184-.086.277l-.212.766a5.748 5.748 0 0 0-.07.288l-.166.786c-.02.095-.037.191-.052.287l-.121.818a4.12 4.12 0 0 0-.033.272l-.077.837c-.009.1-.016.2-.019.3l-.024.856a4.738 4.738 0 0 0 0 .292l.028.87c.003.092.008.184.016.275l.079.891c.008.091.019.183.032.273l.131.898c.013.088.029.176.047.263l.184.906c.02.101.044.2.071.299l.247.911c.022.083.047.165.074.247l.3.912c.029.088.06.174.093.26l.36.914c.033.082.068.165.105.246l.414.904c.037.081.077.162.119.242l.474.9c.043.081.088.161.135.239l.535.89c.048.08.098.158.151.235l.593.87c.048.069.097.137.148.204l.648.853c.053.07.108.139.165.206l.706.833c.063.074.129.147.197.218l.769.805c.057.059.115.118.175.174l.822.779c.063.06.129.119.196.176l.872.744c.067.058.137.114.208.168l.932.711c.072.055.145.108.219.159l.983.669c.073.049.147.096.222.142l1.034.628c.074.045.149.089.226.13l1.082.583c.077.041.154.08.232.117l1.127.535c.076.036.154.07.232.102l1.173.486c.084.035.17.068.257.099l1.216.428c.078.027.157.053.237.077l1.249.372c.086.026.173.05.261.071l1.289.311c.084.02.168.038.253.054l1.323.25c.086.016.173.029.259.041l1.354.185c.084.011.168.021.252.028l1.379.119c.082.007.165.012.247.015l1.404.054c.092.003.184.004.276.002l1.421-.022c.085-.001.171-.005.256-.011l1.44-.094c.081-.006.163-.013.243-.022l1.45-.164c.086-.01.171-.022.257-.036l1.459-.24c.089-.015.177-.032.265-.051l1.461-.321c.082-.017.163-.038.243-.059l1.465-.398c.079-.021.157-.045.235-.07l1.458-.471c.081-.026.16-.054.239-.084l1.45-.55a4.19 4.19 0 0 0 .241-.098l1.438-.629c.08-.035.158-.072.235-.111l1.418-.709c.072-.036.143-.073.212-.112l1.399-.785c.075-.042.15-.086.223-.132l1.371-.864c.071-.045.141-.091.21-.14l1.344-.943c.07-.049.139-.1.206-.152l1.305-1.018c.062-.048.123-.099.183-.15l1.271-1.092.191-.174 1.224-1.165.177-.179 1.178-1.241c.055-.057.107-.116.159-.176l1.126-1.306.164-.201 1.066-1.376.145-.198 1.006-1.439.132-.199.946-1.504.128-.216.877-1.566c.042-.074.081-.15.119-.226l.799-1.622.099-.212.729-1.677.09-.222.652-1.726.085-.243.564-1.774.068-.232.48-1.817.055-.227.396-1.857.047-.247.302-1.893.032-.243.208-1.922.02-.239.113-1.952.007-.237.017-1.968-.004-.249-.086-1.987-.015-.235-.185-2.002-.029-.242-.288-2.007-.04-.239-.392-2.008a4.815 4.815 0 0 0-.051-.232l-.496-2.007-.066-.238-.603-1.998-.075-.228-.708-1.985-.087-.224-.813-1.967-.098-.22-.917-1.938-.107-.214-1.024-1.914-.122-.217-1.131-1.877-.125-.196-1.228-1.836a4.304 4.304 0 0 0-.138-.195l-1.329-1.792-.156-.2-1.433-1.736-.15-.174-1.529-1.687-.169-.178-1.623-1.621-.176-.167-1.715-1.554a3.861 3.861 0 0 0-.182-.157l-1.808-1.486-.196-.152-1.896-1.407-.194-.137-1.979-1.329a5.29 5.29 0 0 0-.202-.128l-2.056-1.243-.215-.123-2.133-1.15a5.716 5.716 0 0 0-.221-.112l-2.209-1.055-.213-.096-2.271-.959a4.732 4.732 0 0 0-.234-.092l-2.336-.854a4.384 4.384 0 0 0-.22-.075l-2.396-.754a4.924 4.924 0 0 0-.245-.07l-2.447-.639-.237-.057-2.497-.526-.234-.044-2.538-.412a6.56 6.56 0 0 0-.245-.034l-2.581-.293-.241-.022-2.604-.171-.238-.011-2.634-.052a5.21 5.21 0 0 0-.25.002l-2.651.076-.241.013-2.661.201-.242.024-2.671.331c-.081.01-.162.021-.243.035l-2.671.459-.235.046-2.661.587-.24.059-2.652.72-.226.067-2.635.848-.236.081-2.602.98-.219.088-2.571 1.106-.225.103-2.532 1.238-.212.11-2.484 1.362-.21.122-2.432 1.49-.2.128-2.375 1.612-.195.14-2.306 1.732a3.98 3.98 0 0 0-.192.151l-2.233 1.851a4.57 4.57 0 0 0-.181.159l-2.153 1.966a4.385 4.385 0 0 0-.17.164l-2.073 2.081a4.684 4.684 0 0 0-.167.178l-1.975 2.188a4.238 4.238 0 0 0-.151.176l-1.884 2.294a5.768 5.768 0 0 0-.153.197l-1.772 2.396a5 5 0 0 0-.134.19l-1.67 2.491a5.266 5.266 0 0 0-.127.202l-1.555 2.585c-.04.067-.079.135-.116.203l-1.436 2.669a4.43 4.43 0 0 0-.111.217l-1.308 2.751c-.033.07-.066.142-.096.213l-1.183 2.829a4.67 4.67 0 0 0-.087.223l-1.049 2.899a4.648 4.648 0 0 0-.076.227l-.909 2.959c-.022.074-.044.147-.063.221l-.773 3.018a5.09 5.09 0 0 0-.054.238l-.624 3.071a4.67 4.67 0 0 0-.042.231l-.476 3.115a3.874 3.874 0 0 0-.031.238l-.323 3.152a4.655 4.655 0 0 0-.018.233l-.172 3.18a4.609 4.609 0 0 0-.007.235l-.016 3.207c-.001.078.001.156.004.233l.139 3.22c.004.079.008.157.015.236l.299 3.231c.007.079.018.159.029.238l.462 3.232c.011.078.024.156.039.233l.623 3.224c.014.075.031.149.049.223l.778 3.21c.019.078.04.156.063.233l.944 3.188c.023.077.047.153.073.229l1.108 3.155c.025.072.052.143.081.214l1.265 3.123c.03.074.061.147.094.219l1.425 3.072c.033.071.067.142.104.212l1.581 3.021c.037.07.076.139.116.207l1.738 2.96a5.8 5.8 0 0 0 .126.203l1.893 2.89c.043.066.087.13.133.194l2.041 2.814c.046.063.093.124.141.185l2.187 2.734c.05.063.102.124.155.184l2.331 2.639a4.5 4.5 0 0 0 .162.176l2.472 2.54c.056.057.112.112.17.166l2.608 2.435c.058.054.116.107.176.158l2.738 2.323c.061.052.124.102.187.151l2.868 2.206c.061.047.124.092.187.136l2.98 2.08c.066.046.133.09.201.133l3.099 1.948c.067.042.135.083.203.122l3.209 1.812c.069.039.141.077.212.113l3.31 1.668c.073.036.146.071.22.104l3.406 1.515c.071.032.142.062.214.091l3.492 1.365c.075.03.151.057.227.083l3.576 1.207c.075.025.152.05.228.072l3.651 1.044c.076.022.154.042.231.06l3.716.878c.078.018.158.035.237.05l3.77.704c.078.014.155.026.233.037l3.827.534c.079.011.159.02.239.027l3.865.355c.08.007.16.013.241.016l3.894.172c.078.004.156.005.233.005l3.922-.003c.082 0 .166-.002.248-.007l3.934-.193c.078-.004.157-.009.235-.017l3.94-.374c.08-.008.16-.017.239-.028l3.942-.563c.078-.011.157-.024.234-.039l3.924-.745c.081-.016.162-.033.242-.052l3.904-.938c.077-.019.154-.039.229-.061l3.874-1.123c.076-.021.151-.045.225-.071l3.833-1.303a6.16 6.16 0 0 0 .227-.083l3.785-1.491c.075-.03.149-.06.222-.093l3.726-1.673c.073-.033.146-.068.218-.105l3.657-1.855c.071-.036.142-.073.211-.113l3.577-2.032c.067-.038.134-.078.199-.12l3.498-2.203c.069-.044.136-.088.203-.135l3.397-2.377c.066-.046.131-.093.194-.142l3.297-2.548c.062-.048.124-.098.184-.15l3.183-2.709.175-.156 3.061-2.864.171-.167 2.934-3.02.161-.174 2.797-3.167a8.31 8.31 0 0 0 .15-.178l2.652-3.303.146-.191 2.502-3.445.135-.197 2.337-3.57c.043-.065.083-.131.122-.198l2.175-3.691c.041-.069.08-.139.117-.209l2-3.809.103-.207 1.824-3.913.095-.217 1.638-4.008c.029-.072.056-.144.082-.217l1.451-4.099c.027-.075.051-.152.074-.229l1.25-4.177.062-.225 1.053-4.254.051-.226.851-4.314.04-.232.642-4.369.029-.235.429-4.414.017-.231.219-4.445a4.67 4.67 0 0 0 .005-.236v-4.47l-.005-.233-.216-4.479-.016-.234-.436-4.486-.028-.233-.656-4.48a4.494 4.494 0 0 0-.04-.232l-.878-4.463-.049-.224-1.094-4.438-.064-.232-1.317-4.395-.072-.219-1.532-4.35a4.516 4.516 0 0 0-.084-.22l-1.751-4.294-.095-.216-1.966-4.222-.103-.208-2.175-4.141-.116-.208-2.388-4.051-.121-.195-2.588-3.954-.134-.194-2.789-3.846-.145-.188-2.986-3.725-.153-.18-3.177-3.595ZM21.528 518.23c-3.608 0-7.093-.615-10.455-1.845-3.28-1.23-5.822-2.993-7.626-5.289-.656-.902-.984-1.804-.984-2.706 0-1.066.41-1.968 1.23-2.706.902-.82 1.886-1.23 2.952-1.23.574 0 1.148.123 1.722.369a2.353 2.353 0 0 1 1.353.984c1.312 1.558 3.075 2.788 5.289 3.69a19.342 19.342 0 0 0 7.134 1.353c2.87 0 5.207-.697 7.01-2.091 1.887-1.394 2.83-3.239 2.83-5.535 0-2.624-1.107-4.469-3.321-5.535-2.132-1.148-4.633-1.968-7.503-2.46a60.611 60.611 0 0 1-7.995-2.091c-2.706-.984-4.961-2.378-6.765-4.182-1.804-1.886-2.706-4.428-2.706-7.626 0-4.346 1.64-7.79 4.92-10.332 3.362-2.542 7.83-3.813 13.407-3.813 2.952 0 5.658.451 8.118 1.353 2.46.82 4.51 1.968 6.15 3.444.984.82 1.476 1.845 1.476 3.075 0 .984-.37 1.845-1.107 2.583-.738.738-1.6 1.107-2.583 1.107-.984 0-1.927-.328-2.83-.984-2.623-2.132-5.862-3.198-9.716-3.198-6.56 0-9.84 2.214-9.84 6.642 0 2.132.984 3.608 2.952 4.428 2.05.738 4.797 1.517 8.24 2.337 1.64.328 3.404.82 5.29 1.476a21.954 21.954 0 0 1 5.658 2.583c1.804 1.066 3.28 2.542 4.428 4.428 1.148 1.804 1.722 4.1 1.722 6.888 0 4.428-1.722 8.036-5.166 10.824-3.362 2.706-7.79 4.059-13.284 4.059Zm33.777 0c-1.066 0-2.05-.41-2.952-1.23-.902-.738-1.353-1.64-1.353-2.706v-39.729c0-2.214.697-3.895 2.09-5.043 1.395-1.148 2.953-1.722 4.675-1.722h13.038c2.788 0 5.37.574 7.749 1.722 2.46 1.066 4.428 2.665 5.904 4.797 1.476 2.132 2.214 4.756 2.214 7.872 0 4.838-1.558 8.692-4.674 11.562-3.034 2.87-6.724 4.305-11.07 4.305h-8.241c-2.05 0-3.075 1.23-3.075 3.69v12.546c0 1.066-.451 1.968-1.353 2.706-.82.82-1.804 1.23-2.952 1.23Zm6.765-27.552h7.503c2.05 0 4.018-.615 5.904-1.845 1.968-1.23 2.952-3.362 2.952-6.396 0-2.378-.902-4.141-2.706-5.289-1.722-1.23-3.608-1.845-5.658-1.845h-7.626c-2.05 0-3.075.984-3.075 2.952v9.102c0 2.214.902 3.321 2.706 3.321Zm40.633 27.552c-1.066 0-2.05-.369-2.952-1.107-.902-.656-1.353-1.64-1.353-2.952v-42.927c0-1.394.45-2.419 1.353-3.075.902-.656 1.886-.984 2.952-.984 1.148 0 2.132.328 2.952.984.902.656 1.353 1.681 1.353 3.075v42.927c0 1.312-.451 2.296-1.353 2.952-.82.738-1.804 1.107-2.952 1.107Zm22.622 0c-1.066 0-2.05-.41-2.952-1.23-.82-.738-1.23-1.64-1.23-2.706v-39.729c0-2.214.738-3.895 2.214-5.043 1.558-1.148 3.198-1.722 4.92-1.722h12.054c2.788 0 5.371.615 7.749 1.845 2.46 1.148 4.428 2.829 5.904 5.043 1.476 2.132 2.214 4.715 2.214 7.749 0 2.87-.861 5.617-2.583 8.241-1.64 2.542-3.772 4.264-6.396 5.166 1.148.492 2.214 1.312 3.198 2.46 1.066 1.066 2.009 2.501 2.829 4.305l4.428 9.963c.246.492.369 1.025.369 1.599 0 1.476-.492 2.542-1.476 3.198-.902.656-1.845.984-2.829.984-1.64 0-2.788-.779-3.444-2.337l-5.043-11.808c-1.066-2.378-2.419-4.018-4.059-4.92-1.64-.902-3.444-1.353-5.412-1.353h-3.075c-2.132 0-3.198 1.23-3.198 3.69v12.669c0 1.066-.41 1.968-1.23 2.706-.82.82-1.804 1.23-2.952 1.23Zm6.888-27.675h6.888c2.05 0 4.018-.656 5.904-1.968 1.968-1.394 2.952-3.362 2.952-5.904 0-2.46-.902-4.305-2.706-5.535-1.722-1.23-3.608-1.845-5.658-1.845h-7.011c-2.05 0-3.075 1.025-3.075 3.075v9.348c0 1.886.902 2.829 2.706 2.829Zm37.298 27.675c-1.066 0-2.009-.369-2.829-1.107-.82-.738-1.23-1.722-1.23-2.952 0-.41.082-.943.246-1.599l15.375-41.697c.574-1.394 1.435-2.46 2.583-3.198 1.148-.738 2.378-1.107 3.69-1.107 1.312 0 2.542.369 3.69 1.107 1.23.738 2.132 1.804 2.706 3.198l16.359 41.697c.164.656.246 1.189.246 1.599 0 1.23-.41 2.214-1.23 2.952-.82.738-1.763 1.107-2.829 1.107-.738 0-1.517-.205-2.337-.615-.738-.328-1.312-.902-1.722-1.722l-4.059-10.824c-.082-.492-.41-.738-.984-.738h-18.819c-.574 0-.943.246-1.107.738l-3.69 10.824c-.41.82-1.025 1.394-1.845 1.722-.738.41-1.476.615-2.214.615Zm12.546-21.279h11.07c.492 0 .861-.164 1.107-.492.328-.41.41-.902.246-1.476l-5.904-16.851c-.246-.82-.615-1.23-1.107-1.23-.574 0-.984.41-1.23 1.23l-5.535 16.974c-.164.492-.123.943.123 1.353.328.328.738.492 1.23.492ZM227.601 517c-2.05 0-3.69-.615-4.92-1.845s-1.845-2.87-1.845-4.92v-38.991c0-1.394.451-2.419 1.353-3.075.984-.656 2.009-.984 3.075-.984a4.4 4.4 0 0 1 2.829.984c.902.656 1.353 1.681 1.353 3.075v34.932c0 1.23.246 2.091.738 2.583.492.41 1.312.615 2.46.615h12.669c1.312 0 2.255.41 2.829 1.23.656.82.984 1.681.984 2.583 0 .984-.328 1.886-.984 2.706-.574.738-1.517 1.107-2.829 1.107h-17.712Zm64.56 1.23c-1.066 0-2.05-.41-2.952-1.23-.902-.738-1.353-1.64-1.353-2.706v-39.729c0-2.214.697-3.895 2.091-5.043 1.394-1.148 2.952-1.722 4.674-1.722h13.038c2.788 0 5.371.574 7.749 1.722 2.46 1.066 4.428 2.665 5.904 4.797 1.476 2.132 2.214 4.756 2.214 7.872 0 4.838-1.558 8.692-4.674 11.562-3.034 2.87-6.724 4.305-11.07 4.305h-8.241c-2.05 0-3.075 1.23-3.075 3.69v12.546c0 1.066-.451 1.968-1.353 2.706-.82.82-1.804 1.23-2.952 1.23Zm6.765-27.552h7.503c2.05 0 4.018-.615 5.904-1.845 1.968-1.23 2.952-3.362 2.952-6.396 0-2.378-.902-4.141-2.706-5.289-1.722-1.23-3.608-1.845-5.658-1.845h-7.626c-2.05 0-3.075.984-3.075 2.952v9.102c0 2.214.902 3.321 2.706 3.321Zm33.575 27.552c-1.066 0-2.009-.369-2.829-1.107-.82-.738-1.23-1.722-1.23-2.952 0-.41.082-.943.246-1.599l15.375-41.697c.574-1.394 1.435-2.46 2.583-3.198 1.148-.738 2.378-1.107 3.69-1.107 1.312 0 2.542.369 3.69 1.107 1.23.738 2.132 1.804 2.706 3.198l16.359 41.697c.164.656.246 1.189.246 1.599 0 1.23-.41 2.214-1.23 2.952-.82.738-1.763 1.107-2.829 1.107-.738 0-1.517-.205-2.337-.615-.738-.328-1.312-.902-1.722-1.722l-4.059-10.824c-.082-.492-.41-.738-.984-.738h-18.819c-.574 0-.943.246-1.107.738l-3.69 10.824c-.41.82-1.025 1.394-1.845 1.722-.738.41-1.476.615-2.214.615Zm12.546-21.279h11.07c.492 0 .861-.164 1.107-.492.328-.41.41-.902.246-1.476l-5.904-16.851c-.246-.82-.615-1.23-1.107-1.23-.574 0-.984.41-1.23 1.23l-5.535 16.974c-.164.492-.123.943.123 1.353.328.328.738.492 1.23.492Zm42.96 21.279c-1.066 0-2.05-.41-2.952-1.23-.82-.738-1.23-1.64-1.23-2.706v-39.729c0-2.214.738-3.895 2.214-5.043 1.558-1.148 3.198-1.722 4.92-1.722h12.054c2.788 0 5.371.615 7.749 1.845 2.46 1.148 4.428 2.829 5.904 5.043 1.476 2.132 2.214 4.715 2.214 7.749 0 2.87-.861 5.617-2.583 8.241-1.64 2.542-3.772 4.264-6.396 5.166 1.148.492 2.214 1.312 3.198 2.46 1.066 1.066 2.009 2.501 2.829 4.305l4.428 9.963c.246.492.369 1.025.369 1.599 0 1.476-.492 2.542-1.476 3.198-.902.656-1.845.984-2.829.984-1.64 0-2.788-.779-3.444-2.337l-5.043-11.808c-1.066-2.378-2.419-4.018-4.059-4.92-1.64-.902-3.444-1.353-5.412-1.353h-3.075c-2.132 0-3.198 1.23-3.198 3.69v12.669c0 1.066-.41 1.968-1.23 2.706-.82.82-1.804 1.23-2.952 1.23Zm6.888-27.675h6.888c2.05 0 4.018-.656 5.904-1.968 1.968-1.394 2.952-3.362 2.952-5.904 0-2.46-.902-4.305-2.706-5.535-1.722-1.23-3.608-1.845-5.658-1.845h-7.011c-2.05 0-3.075 1.025-3.075 3.075v9.348c0 1.886.902 2.829 2.706 2.829Zm40.619 27.675c-1.066 0-2.05-.369-2.952-1.107-.902-.656-1.353-1.64-1.353-2.952v-42.927c0-1.394.451-2.419 1.353-3.075.902-.656 1.886-.984 2.952-.984 1.148 0 2.132.328 2.952.984.902.656 1.353 1.681 1.353 3.075v12.792c0 1.968.369 2.952 1.107 2.952.656 0 1.394-.492 2.214-1.476l16.236-16.728c1.066-1.066 2.132-1.599 3.198-1.599 1.23 0 2.296.41 3.198 1.23.902.82 1.353 1.845 1.353 3.075 0 .984-.369 1.845-1.107 2.583l-16.974 16.728 17.958 20.172c.738.902 1.107 1.763 1.107 2.583 0 1.23-.492 2.337-1.476 3.321-.902.902-1.927 1.353-3.075 1.353-1.23 0-2.296-.533-3.198-1.599l-17.22-20.049-1.722 1.722c-1.066 1.066-1.599 2.337-1.599 3.813v12.054c0 1.312-.451 2.296-1.353 2.952-.82.738-1.804 1.107-2.952 1.107ZM123.905 591.6c-.64 0-1.18-.22-1.62-.66-.4-.48-.56-1.04-.48-1.68l2.58-20.16c.08-.8.38-1.4.9-1.8.56-.4 1.16-.6 1.8-.6.64 0 1.22.16 1.74.48.56.28.94.72 1.14 1.32l4.74 13.44c.2.48.4.72.6.72.24 0 .44-.24.6-.72l4.74-13.44c.2-.6.56-1.04 1.08-1.32.56-.32 1.14-.48 1.74-.48.64 0 1.24.2 1.8.6.56.4.88 1 .96 1.8l2.58 20.16c.08.64-.08 1.2-.48 1.68-.4.44-.94.66-1.62.66-.52 0-1-.18-1.44-.54-.4-.36-.64-.82-.72-1.38l-1.32-14.82c-.04-.48-.2-.72-.48-.72-.28 0-.48.2-.6.6l-4.32 11.94c-.24.64-.58 1.1-1.02 1.38-.44.28-.94.42-1.5.42-1.08 0-1.9-.6-2.46-1.8l-4.38-11.94c-.16-.4-.36-.6-.6-.6-.16 0-.28.24-.36.72l-1.44 14.82a1.89 1.89 0 0 1-.72 1.38c-.4.36-.88.54-1.44.54Zm42.466 0c-.52 0-.98-.18-1.38-.54-.4-.36-.6-.84-.6-1.44 0-.2.04-.46.12-.78l7.5-20.34c.28-.68.7-1.2 1.26-1.56a3.27 3.27 0 0 1 3.6 0c.6.36 1.04.88 1.32 1.56l7.98 20.34c.08.32.12.58.12.78 0 .6-.2 1.08-.6 1.44-.4.36-.86.54-1.38.54-.36 0-.74-.1-1.14-.3-.36-.16-.64-.44-.84-.84l-1.98-5.28c-.04-.24-.2-.36-.48-.36h-9.18c-.28 0-.46.12-.54.36l-1.8 5.28c-.2.4-.5.68-.9.84-.36.2-.72.3-1.08.3Zm6.12-10.38h5.4c.24 0 .42-.08.54-.24.16-.2.2-.44.12-.72l-2.88-8.22c-.12-.4-.3-.6-.54-.6-.28 0-.48.2-.6.6l-2.7 8.28a.76.76 0 0 0 .06.66c.16.16.36.24.6.24Zm33.796 9.78c-.84 0-1.64-.28-2.4-.84-.72-.56-1.08-1.36-1.08-2.4v-17.64c0-.92.3-1.66.9-2.22.64-.6 1.38-.9 2.22-.9h5.4c2.4 0 4.5.5 6.3 1.5 1.84.96 3.26 2.34 4.26 4.14 1.04 1.8 1.56 3.96 1.56 6.48 0 2.2-.48 4.2-1.44 6-.92 1.8-2.22 3.24-3.9 4.32-1.64 1.04-3.54 1.56-5.7 1.56h-6.12Zm2.46-3.72h2.64c2.6 0 4.58-.68 5.94-2.04 1.36-1.4 2.02-3.44 1.98-6.12-.04-2.72-.74-4.8-2.1-6.24-1.36-1.44-3.32-2.16-5.88-2.16h-2.52c-1.2 0-1.8.6-1.8 1.8v12.96c0 1.2.58 1.8 1.74 1.8Zm34.804 3.72c-1 0-1.8-.3-2.4-.9-.6-.6-.9-1.4-.9-2.4v-17.58c0-.92.3-1.66.9-2.22.64-.6 1.38-.9 2.22-.9h9.06c.68 0 1.16.18 1.44.54.32.32.48.74.48 1.26 0 .48-.18.9-.54 1.26-.32.36-.78.54-1.38.54h-6.42c-1.04 0-1.56.52-1.56 1.56v3.3c0 1.04.48 1.56 1.44 1.56h5.94c.68 0 1.16.18 1.44.54.32.36.48.78.48 1.26 0 .44-.18.86-.54 1.26-.32.36-.78.54-1.38.54h-5.94c-.96 0-1.44.5-1.44 1.5v3.66c0 1.04.5 1.56 1.5 1.56h7.08c.68 0 1.16.2 1.44.6.32.36.48.78.48 1.26s-.18.9-.54 1.26c-.32.36-.78.54-1.38.54h-9.48Zm30.919.6c-.52 0-1-.18-1.44-.54-.44-.32-.66-.8-.66-1.44v-20.94c0-.68.22-1.18.66-1.5.44-.32.92-.48 1.44-.48.56 0 1.04.16 1.44.48.44.32.66.82.66 1.5v20.94c0 .64-.22 1.12-.66 1.44-.4.36-.88.54-1.44.54Zm22.435 0c-.52 0-1-.2-1.44-.6-.4-.36-.6-.8-.6-1.32V570.3c0-1.08.36-1.9 1.08-2.46.76-.56 1.56-.84 2.4-.84h5.88c1.36 0 2.62.3 3.78.9 1.2.56 2.16 1.38 2.88 2.46.72 1.04 1.08 2.3 1.08 3.78 0 1.4-.42 2.74-1.26 4.02-.8 1.24-1.84 2.08-3.12 2.52.56.24 1.08.64 1.56 1.2.52.52.98 1.22 1.38 2.1l2.16 4.86c.12.24.18.5.18.78 0 .72-.24 1.24-.72 1.56-.44.32-.9.48-1.38.48-.8 0-1.36-.38-1.68-1.14l-2.46-5.76c-.52-1.16-1.18-1.96-1.98-2.4-.8-.44-1.68-.66-2.64-.66h-1.5c-1.04 0-1.56.6-1.56 1.8v6.18c0 .52-.2.96-.6 1.32-.4.4-.88.6-1.44.6Zm3.36-13.5h3.36c1 0 1.96-.32 2.88-.96.96-.68 1.44-1.64 1.44-2.88 0-1.2-.44-2.1-1.32-2.7-.84-.6-1.76-.9-2.76-.9h-3.42c-1 0-1.5.5-1.5 1.5v4.56c0 .92.44 1.38 1.32 1.38Zm29.594 13.5c-.52 0-.98-.18-1.38-.54-.4-.36-.6-.84-.6-1.44 0-.2.04-.46.12-.78l7.5-20.34c.28-.68.7-1.2 1.26-1.56a3.27 3.27 0 0 1 3.6 0c.6.36 1.04.88 1.32 1.56l7.98 20.34c.08.32.12.58.12.78 0 .6-.2 1.08-.6 1.44-.4.36-.86.54-1.38.54-.36 0-.74-.1-1.14-.3-.36-.16-.64-.44-.84-.84l-1.98-5.28c-.04-.24-.2-.36-.48-.36h-9.18c-.28 0-.46.12-.54.36l-1.8 5.28c-.2.4-.5.68-.9.84-.36.2-.72.3-1.08.3Zm6.12-10.38h5.4c.24 0 .42-.08.54-.24.16-.2.2-.44.12-.72l-2.88-8.22c-.12-.4-.3-.6-.54-.6-.28 0-.48.2-.6.6l-2.7 8.28a.76.76 0 0 0 .06.66c.16.16.36.24.6.24Z" fill="#000"/></svg>